<svg width="186" height="40" viewBox="0 0 186 40" fill="none" xmlns="http://www.w3.org/2000/svg">
<path d="M1.98 26.384C1.98 26.056 1.968 25.544 1.944 24.848C1.928 24.152 1.9 23.336 1.86 22.4C1.828 21.464 1.788 20.464 1.74 19.4C1.692 18.336 1.64 17.264 1.584 16.184C1.528 15.104 1.472 14.072 1.416 13.088C1.368 12.096 1.32 11.216 1.272 10.448C1.432 10.416 1.628 10.392 1.86 10.376C2.092 10.36 2.312 10.352 2.52 10.352C2.752 10.352 2.968 10.36 3.168 10.376C3.376 10.392 3.536 10.412 3.648 10.436C3.664 10.628 3.684 10.96 3.708 11.432C3.74 11.896 3.772 12.444 3.804 13.076C3.836 13.708 3.872 14.372 3.912 15.068C3.952 15.756 3.992 16.416 4.032 17.048C4.44 16.744 4.904 16.36 5.424 15.896C5.952 15.424 6.492 14.9 7.044 14.324C7.604 13.748 8.14 13.136 8.652 12.488C9.172 11.832 9.632 11.168 10.032 10.496C10.392 10.776 10.76 11.04 11.136 11.288C11.52 11.536 11.8 11.704 11.976 11.792C11.848 12.016 11.624 12.336 11.304 12.752C10.992 13.168 10.6 13.644 10.128 14.18C9.664 14.716 9.136 15.272 8.544 15.848C7.96 16.424 7.328 16.976 6.648 17.504C7.08 17.952 7.528 18.464 7.992 19.04C8.456 19.616 8.908 20.212 9.348 20.828C9.788 21.436 10.188 22.016 10.548 22.568C10.916 23.12 11.224 23.604 11.472 24.02C11.728 24.436 11.9 24.732 11.988 24.908C11.852 25.012 11.652 25.136 11.388 25.28C11.124 25.424 10.848 25.564 10.56 25.7C10.28 25.828 10.032 25.932 9.816 26.012C9.76 25.884 9.628 25.636 9.42 25.268C9.22 24.892 8.96 24.44 8.64 23.912C8.328 23.384 7.976 22.824 7.584 22.232C7.192 21.632 6.78 21.044 6.348 20.468C5.924 19.884 5.496 19.364 5.064 18.908C4.936 19.012 4.784 19.12 4.608 19.232C4.44 19.344 4.3 19.432 4.188 19.496C4.22 20.104 4.256 20.772 4.296 21.5C4.336 22.22 4.372 22.916 4.404 23.588C4.436 24.26 4.464 24.832 4.488 25.304C4.512 25.768 4.524 26.044 4.524 26.132C4.412 26.14 4.216 26.156 3.936 26.18C3.664 26.212 3.352 26.244 3 26.276C2.656 26.316 2.316 26.352 1.98 26.384ZM20.4009 25.232C20.2169 25.496 19.8889 25.76 19.4169 26.024C18.9449 26.296 18.3809 26.432 17.7249 26.432C16.8049 26.432 16.1209 26.192 15.6729 25.712C15.2249 25.224 14.9289 24.552 14.7849 23.696C14.6489 22.84 14.5809 21.864 14.5809 20.768C14.5809 20.064 14.5889 19.296 14.6049 18.464C14.6209 17.632 14.6409 16.772 14.6649 15.884C14.6969 14.996 14.7289 14.124 14.7609 13.268C14.7929 12.404 14.8249 11.596 14.8569 10.844C14.8889 10.084 14.9209 9.42 14.9529 8.852C15.3209 8.82 15.6569 8.804 15.9609 8.804C16.1689 8.804 16.3769 8.812 16.5849 8.828C16.7929 8.844 17.0049 8.864 17.2209 8.888C17.1889 9.464 17.1529 10.148 17.1129 10.94C17.0729 11.724 17.0289 12.56 16.9809 13.448C16.9409 14.336 16.9049 15.224 16.8729 16.112C16.8409 17 16.8129 17.828 16.7889 18.596C16.7649 19.364 16.7529 20.02 16.7529 20.564C16.7529 21.172 16.7849 21.76 16.8489 22.328C16.9129 22.888 17.0489 23.348 17.2569 23.708C17.4649 24.068 17.7809 24.248 18.2049 24.248C18.5329 24.248 18.7849 24.168 18.9609 24.008C19.1369 23.848 19.2889 23.644 19.4169 23.396C19.4649 23.46 19.5369 23.58 19.6329 23.756C19.7369 23.924 19.8409 24.116 19.9449 24.332C20.0569 24.54 20.1529 24.728 20.2329 24.896C20.3209 25.064 20.3769 25.176 20.4009 25.232ZM27.0553 26.252C26.0553 26.252 25.1473 26.12 24.3313 25.856C23.5233 25.584 22.8793 25.152 22.3993 24.56C21.9193 23.96 21.6793 23.164 21.6793 22.172C21.6793 21.22 21.9473 20.432 22.4833 19.808C23.0193 19.184 23.7433 18.724 24.6553 18.428C25.5753 18.124 26.6033 17.972 27.7393 17.972C28.2673 17.972 28.7833 18.012 29.2873 18.092C29.7913 18.164 30.2273 18.252 30.5953 18.356C30.9633 18.452 31.2113 18.528 31.3393 18.584C31.3153 18.32 31.2673 18.052 31.1953 17.78C31.1313 17.5 31.0313 17.256 30.8953 17.048C30.5913 16.512 30.1473 16.072 29.5633 15.728C28.9873 15.376 28.2633 15.2 27.3913 15.2C26.4713 15.2 25.6913 15.4 25.0513 15.8C24.4113 16.192 23.9313 16.66 23.6113 17.204L21.6673 15.92C22.0193 15.4 22.4833 14.94 23.0593 14.54C23.6353 14.14 24.2993 13.824 25.0513 13.592C25.8033 13.36 26.6113 13.244 27.4753 13.244C28.8193 13.244 29.9313 13.5 30.8113 14.012C31.6913 14.524 32.3353 15.2 32.7433 16.04C32.9513 16.464 33.1153 16.928 33.2353 17.432C33.3553 17.936 33.4273 18.56 33.4513 19.304C33.4673 20.088 33.4833 20.756 33.4993 21.308C33.5233 21.86 33.5473 22.336 33.5713 22.736C33.6113 23.256 33.6913 23.592 33.8113 23.744C33.9313 23.896 34.1033 23.972 34.3273 23.972C34.5833 23.972 34.7993 23.864 34.9753 23.648C35.1513 23.424 35.2513 23.112 35.2753 22.712L36.4273 23.984C36.3793 24.656 36.1433 25.168 35.7193 25.52C35.2953 25.872 34.7993 26.048 34.2313 26.048C33.7833 26.048 33.3873 25.964 33.0433 25.796C32.7073 25.62 32.4393 25.396 32.2393 25.124C32.0393 24.852 31.9233 24.572 31.8913 24.284C31.7313 24.58 31.4193 24.88 30.9553 25.184C30.4993 25.488 29.9353 25.744 29.2633 25.952C28.5993 26.152 27.8633 26.252 27.0553 26.252ZM27.4873 24.368C28.0073 24.368 28.5153 24.288 29.0113 24.128C29.5073 23.968 29.9633 23.756 30.3793 23.492C30.8033 23.228 31.1513 22.936 31.4233 22.616C31.4153 22.12 31.4153 21.68 31.4233 21.296C31.4313 20.904 31.4433 20.544 31.4593 20.216C31.2273 20.136 30.7833 20.032 30.1273 19.904C29.4713 19.768 28.7313 19.7 27.9073 19.7C27.1953 19.7 26.5473 19.796 25.9633 19.988C25.3873 20.172 24.9273 20.44 24.5833 20.792C24.2473 21.144 24.0793 21.568 24.0793 22.064C24.0793 22.664 24.2233 23.132 24.5113 23.468C24.8073 23.796 25.2113 24.028 25.7233 24.164C26.2353 24.3 26.8233 24.368 27.4873 24.368ZM41.1904 32.336C40.0704 32.336 39.0744 32.16 38.2024 31.808C37.3304 31.456 36.6504 31.108 36.1624 30.764C36.2184 30.612 36.3144 30.404 36.4504 30.14C36.5864 29.884 36.7304 29.628 36.8824 29.372C37.0344 29.116 37.1624 28.92 37.2664 28.784C37.4824 28.944 37.8024 29.132 38.2264 29.348C38.6504 29.572 39.1304 29.768 39.6664 29.936C40.2024 30.104 40.7424 30.188 41.2864 30.188C41.9984 30.188 42.6024 30 43.0984 29.624C43.5944 29.256 43.9944 28.752 44.2984 28.112C44.6024 27.48 44.8224 26.764 44.9584 25.964C45.1024 25.164 45.1784 24.34 45.1864 23.492C45.0504 23.788 44.8344 24.096 44.5384 24.416C44.2504 24.728 43.8664 24.992 43.3864 25.208C42.9064 25.416 42.3184 25.52 41.6224 25.52C40.4784 25.52 39.5944 25.188 38.9704 24.524C38.3464 23.852 37.9104 22.94 37.6624 21.788C37.4224 20.628 37.3024 19.316 37.3024 17.852C37.3024 17.292 37.3144 16.712 37.3384 16.112C37.3624 15.512 37.3904 14.892 37.4224 14.252C37.5264 14.228 37.6784 14.212 37.8784 14.204C38.0784 14.196 38.2904 14.192 38.5144 14.192C38.7784 14.192 39.0304 14.2 39.2704 14.216C39.5184 14.224 39.6864 14.24 39.7744 14.264C39.7584 14.36 39.7344 14.588 39.7024 14.948C39.6704 15.308 39.6384 15.744 39.6064 16.256C39.5744 16.768 39.5584 17.296 39.5584 17.84C39.5584 18.48 39.5864 19.124 39.6424 19.772C39.6984 20.412 39.8064 21 39.9664 21.536C40.1344 22.072 40.3784 22.504 40.6984 22.832C41.0184 23.152 41.4464 23.312 41.9824 23.312C42.5824 23.312 43.0984 23.14 43.5304 22.796C43.9624 22.452 44.3064 21.948 44.5624 21.284C44.8264 20.612 44.9944 19.788 45.0664 18.812C45.0984 18.436 45.1224 18.016 45.1384 17.552C45.1624 17.08 45.1824 16.628 45.1984 16.196C45.2144 15.756 45.2224 15.384 45.2224 15.08C45.2304 14.768 45.2304 14.58 45.2224 14.516C45.3504 14.5 45.4824 14.488 45.6184 14.48C45.7544 14.472 45.8904 14.468 46.0264 14.468C46.5144 14.468 46.9584 14.516 47.3584 14.612C47.3904 15.284 47.4064 16.084 47.4064 17.012C47.4064 17.772 47.3944 18.62 47.3704 19.556C47.3464 20.484 47.3104 21.44 47.2624 22.424C47.2224 23.408 47.1784 24.376 47.1304 25.328C47.0584 26.68 46.7944 27.88 46.3384 28.928C45.8904 29.984 45.2384 30.816 44.3824 31.424C43.5344 32.032 42.4704 32.336 41.1904 32.336Z" fill="white"/>
<g clip-path="url(#clip0_155_91)">
<rect x="60" width="40" height="40" rx="20" fill="#B3013D"/>
<path d="M70.3709 40.7513C70.3709 39.8766 70.3389 38.5113 70.2749 36.6553C70.2322 34.7993 70.1576 32.6233 70.0509 30.1273C69.9656 27.6313 69.8589 24.9646 69.7309 22.1273C69.6029 19.29 69.4642 16.4313 69.3149 13.5513C69.1656 10.6713 69.0162 7.91929 68.8669 5.29529C68.7389 2.64996 68.6109 0.303296 68.4829 -1.7447C68.9096 -1.83004 69.4322 -1.89404 70.0509 -1.9367C70.6696 -1.97937 71.2562 -2.0007 71.8109 -2.0007C72.4296 -2.0007 73.0056 -1.97937 73.5389 -1.9367C74.0936 -1.89404 74.5202 -1.8407 74.8189 -1.7767C74.8616 -1.2647 74.9149 -0.379371 74.9789 0.879294C75.0642 2.11663 75.1496 3.57796 75.2349 5.2633C75.3202 6.94863 75.4162 8.7193 75.5229 10.5753C75.6296 12.41 75.7362 14.17 75.8429 15.8553C76.9309 15.0446 78.1682 14.0206 79.5549 12.7833C80.9629 11.5246 82.4029 10.1273 83.8749 8.5913C85.3682 7.05529 86.7976 5.42329 88.1629 3.6953C89.5496 1.94596 90.7762 0.175295 91.8429 -1.6167C92.8029 -0.870038 93.7842 -0.166039 94.7869 0.495295C95.8109 1.15663 96.5576 1.60463 97.0269 1.8393C96.6856 2.43663 96.0882 3.28996 95.2349 4.39929C94.4029 5.50863 93.3576 6.77796 92.0989 8.20729C90.8616 9.63663 89.4536 11.1193 87.8749 12.6553C86.3176 14.1913 84.6322 15.6633 82.8189 17.0713C83.9709 18.266 85.1656 19.6313 86.4029 21.1673C87.6402 22.7033 88.8456 24.2926 90.0189 25.9353C91.1922 27.5566 92.2589 29.1033 93.2189 30.5753C94.2002 32.0473 95.0216 33.338 95.6829 34.4473C96.3656 35.5566 96.8242 36.346 97.0589 36.8153C96.6962 37.0926 96.1629 37.4233 95.4589 37.8073C94.7549 38.1913 94.0189 38.5646 93.2509 38.9273C92.5042 39.2686 91.8429 39.546 91.2669 39.7593C91.1176 39.418 90.7656 38.7566 90.2109 37.7753C89.6776 36.7726 88.9842 35.5673 88.1309 34.1593C87.2989 32.7513 86.3602 31.258 85.3149 29.6793C84.2696 28.0793 83.1709 26.5113 82.0189 24.9753C80.8882 23.418 79.7469 22.0313 78.5949 20.8153C78.2536 21.0926 77.8482 21.3806 77.3789 21.6793C76.9309 21.978 76.5576 22.2126 76.2589 22.3833C76.3442 24.0046 76.4402 25.786 76.5469 27.7273C76.6536 29.6473 76.7496 31.5033 76.8349 33.2953C76.9202 35.0873 76.9949 36.6126 77.0589 37.8713C77.1229 39.1086 77.1549 39.8446 77.1549 40.0793C76.8562 40.1006 76.3336 40.1433 75.5869 40.2073C74.8616 40.2926 74.0296 40.378 73.0909 40.4633C72.1736 40.57 71.2669 40.666 70.3709 40.7513Z" fill="white"/>
</g>
<path d="M117.908 26.612C116.364 26.612 115.096 26.252 114.104 25.532C113.12 24.812 112.392 23.84 111.92 22.616C111.448 21.392 111.212 20.028 111.212 18.524C111.212 16.884 111.46 15.436 111.956 14.18C112.46 12.924 113.208 11.94 114.2 11.228C115.192 10.516 116.428 10.16 117.908 10.16C119.124 10.16 120.156 10.388 121.004 10.844C121.86 11.292 122.552 11.912 123.08 12.704C123.616 13.488 124.004 14.388 124.244 15.404C124.492 16.412 124.616 17.472 124.616 18.584C124.616 19.664 124.484 20.688 124.22 21.656C123.964 22.624 123.564 23.48 123.02 24.224C122.476 24.96 121.78 25.544 120.932 25.976C120.084 26.4 119.076 26.612 117.908 26.612ZM117.872 24.224C118.936 24.224 119.8 23.96 120.464 23.432C121.128 22.896 121.612 22.192 121.916 21.32C122.228 20.448 122.384 19.5 122.384 18.476C122.384 17.692 122.312 16.928 122.168 16.184C122.032 15.44 121.796 14.772 121.46 14.18C121.132 13.58 120.692 13.104 120.14 12.752C119.588 12.4 118.896 12.224 118.064 12.224C117.04 12.224 116.2 12.504 115.544 13.064C114.896 13.616 114.42 14.372 114.116 15.332C113.812 16.284 113.66 17.36 113.66 18.56C113.66 19.592 113.808 20.54 114.104 21.404C114.408 22.26 114.872 22.944 115.496 23.456C116.12 23.968 116.912 24.224 117.872 24.224ZM129.602 15.368C129.842 14.96 130.19 14.588 130.646 14.252C131.11 13.916 131.63 13.648 132.206 13.448C132.79 13.248 133.374 13.148 133.958 13.148C134.334 13.148 134.714 13.184 135.098 13.256C135.482 13.32 135.782 13.412 135.998 13.532L135.518 15.944C135.326 15.864 135.078 15.78 134.774 15.692C134.478 15.596 134.11 15.548 133.67 15.548C133.198 15.548 132.726 15.636 132.254 15.812C131.79 15.98 131.362 16.212 130.97 16.508C130.578 16.804 130.25 17.144 129.986 17.528C130.098 18.088 130.206 18.772 130.31 19.58C130.422 20.388 130.522 21.216 130.61 22.064C130.698 22.912 130.77 23.688 130.826 24.392C130.882 25.088 130.91 25.612 130.91 25.964C130.566 25.996 130.146 26.016 129.65 26.024C129.154 26.032 128.698 26.032 128.282 26.024C128.282 25.28 128.266 24.496 128.234 23.672C128.202 22.84 128.15 21.992 128.078 21.128C128.014 20.256 127.93 19.388 127.826 18.524C127.722 17.66 127.598 16.824 127.454 16.016C127.318 15.2 127.162 14.428 126.986 13.7C127.202 13.636 127.454 13.572 127.742 13.508C128.038 13.444 128.31 13.388 128.558 13.34C128.806 13.292 128.974 13.264 129.062 13.256C129.166 13.528 129.274 13.88 129.386 14.312C129.498 14.744 129.57 15.096 129.602 15.368ZM142.844 26.252C141.844 26.252 140.936 26.12 140.12 25.856C139.312 25.584 138.668 25.152 138.188 24.56C137.708 23.96 137.468 23.164 137.468 22.172C137.468 21.22 137.736 20.432 138.272 19.808C138.808 19.184 139.532 18.724 140.444 18.428C141.364 18.124 142.392 17.972 143.528 17.972C144.056 17.972 144.572 18.012 145.076 18.092C145.58 18.164 146.016 18.252 146.384 18.356C146.752 18.452 147 18.528 147.128 18.584C147.104 18.32 147.056 18.052 146.984 17.78C146.92 17.5 146.82 17.256 146.684 17.048C146.38 16.512 145.936 16.072 145.352 15.728C144.776 15.376 144.052 15.2 143.18 15.2C142.26 15.2 141.48 15.4 140.84 15.8C140.2 16.192 139.72 16.66 139.4 17.204L137.456 15.92C137.808 15.4 138.272 14.94 138.848 14.54C139.424 14.14 140.088 13.824 140.84 13.592C141.592 13.36 142.4 13.244 143.264 13.244C144.608 13.244 145.72 13.5 146.6 14.012C147.48 14.524 148.124 15.2 148.532 16.04C148.74 16.464 148.904 16.928 149.024 17.432C149.144 17.936 149.216 18.56 149.24 19.304C149.256 20.088 149.272 20.756 149.288 21.308C149.312 21.86 149.336 22.336 149.36 22.736C149.4 23.256 149.48 23.592 149.6 23.744C149.72 23.896 149.892 23.972 150.116 23.972C150.372 23.972 150.588 23.864 150.764 23.648C150.94 23.424 151.04 23.112 151.064 22.712L152.216 23.984C152.168 24.656 151.932 25.168 151.508 25.52C151.084 25.872 150.588 26.048 150.02 26.048C149.572 26.048 149.176 25.964 148.832 25.796C148.496 25.62 148.228 25.396 148.028 25.124C147.828 24.852 147.712 24.572 147.68 24.284C147.52 24.58 147.208 24.88 146.744 25.184C146.288 25.488 145.724 25.744 145.052 25.952C144.388 26.152 143.652 26.252 142.844 26.252ZM143.276 24.368C143.796 24.368 144.304 24.288 144.8 24.128C145.296 23.968 145.752 23.756 146.168 23.492C146.592 23.228 146.94 22.936 147.212 22.616C147.204 22.12 147.204 21.68 147.212 21.296C147.22 20.904 147.232 20.544 147.248 20.216C147.016 20.136 146.572 20.032 145.916 19.904C145.26 19.768 144.52 19.7 143.696 19.7C142.984 19.7 142.336 19.796 141.752 19.988C141.176 20.172 140.716 20.44 140.372 20.792C140.036 21.144 139.868 21.568 139.868 22.064C139.868 22.664 140.012 23.132 140.3 23.468C140.596 23.796 141 24.028 141.512 24.164C142.024 24.3 142.612 24.368 143.276 24.368ZM163.435 23.504C163.243 23.896 162.919 24.292 162.463 24.692C162.007 25.084 161.439 25.416 160.759 25.688C160.079 25.952 159.307 26.084 158.443 26.084C157.267 26.084 156.255 25.784 155.407 25.184C154.559 24.584 153.907 23.788 153.451 22.796C152.995 21.796 152.767 20.704 152.767 19.52C152.767 18.224 152.991 17.076 153.439 16.076C153.887 15.076 154.543 14.292 155.407 13.724C156.271 13.148 157.327 12.86 158.575 12.86C159.319 12.86 159.991 12.984 160.591 13.232C161.191 13.472 161.707 13.8 162.139 14.216C162.571 14.624 162.911 15.068 163.159 15.548L161.491 16.64C161.451 16.552 161.375 16.408 161.263 16.208C161.159 16.008 160.995 15.8 160.771 15.584C160.555 15.36 160.267 15.172 159.907 15.02C159.555 14.868 159.111 14.792 158.575 14.792C157.831 14.792 157.199 14.972 156.679 15.332C156.159 15.684 155.763 16.18 155.491 16.82C155.227 17.452 155.095 18.184 155.095 19.016C155.095 19.816 155.207 20.572 155.431 21.284C155.663 21.988 156.031 22.564 156.535 23.012C157.039 23.46 157.707 23.684 158.539 23.684C159.043 23.684 159.487 23.604 159.871 23.444C160.255 23.284 160.583 23.096 160.855 22.88C161.127 22.664 161.339 22.464 161.491 22.28C161.651 22.088 161.747 21.96 161.779 21.896L163.435 23.504ZM171.768 25.232C171.584 25.496 171.256 25.76 170.784 26.024C170.312 26.296 169.748 26.432 169.092 26.432C168.172 26.432 167.488 26.192 167.04 25.712C166.592 25.224 166.296 24.552 166.152 23.696C166.016 22.84 165.948 21.864 165.948 20.768C165.948 20.064 165.956 19.296 165.972 18.464C165.988 17.632 166.008 16.772 166.032 15.884C166.064 14.996 166.096 14.124 166.128 13.268C166.16 12.404 166.192 11.596 166.224 10.844C166.256 10.084 166.288 9.42 166.32 8.852C166.688 8.82 167.024 8.804 167.328 8.804C167.536 8.804 167.744 8.812 167.952 8.828C168.16 8.844 168.372 8.864 168.588 8.888C168.556 9.464 168.52 10.148 168.48 10.94C168.44 11.724 168.396 12.56 168.348 13.448C168.308 14.336 168.272 15.224 168.24 16.112C168.208 17 168.18 17.828 168.156 18.596C168.132 19.364 168.12 20.02 168.12 20.564C168.12 21.172 168.152 21.76 168.216 22.328C168.28 22.888 168.416 23.348 168.624 23.708C168.832 24.068 169.148 24.248 169.572 24.248C169.9 24.248 170.152 24.168 170.328 24.008C170.504 23.848 170.656 23.644 170.784 23.396C170.832 23.46 170.904 23.58 171 23.756C171.104 23.924 171.208 24.116 171.312 24.332C171.424 24.54 171.52 24.728 171.6 24.896C171.688 25.064 171.744 25.176 171.768 25.232ZM184.531 23.324C184.371 23.548 184.135 23.808 183.823 24.104C183.511 24.392 183.123 24.672 182.659 24.944C182.195 25.208 181.655 25.428 181.039 25.604C180.423 25.78 179.727 25.868 178.951 25.868C177.751 25.868 176.699 25.624 175.795 25.136C174.891 24.648 174.191 23.936 173.695 23C173.199 22.056 172.951 20.908 172.951 19.556C172.951 18.26 173.219 17.136 173.755 16.184C174.299 15.232 175.043 14.496 175.987 13.976C176.931 13.456 178.015 13.196 179.239 13.196C180.775 13.196 181.971 13.664 182.827 14.6C183.691 15.536 184.171 16.792 184.267 18.368C184.283 18.624 184.291 18.872 184.291 19.112C184.291 19.344 184.279 19.584 184.255 19.832C184.151 19.824 183.935 19.816 183.607 19.808C183.287 19.792 182.911 19.78 182.479 19.772C182.047 19.756 181.611 19.744 181.171 19.736C180.739 19.72 180.367 19.712 180.055 19.712C179.247 19.712 178.419 19.752 177.571 19.832C176.723 19.912 175.967 20.004 175.303 20.108C175.311 20.316 175.331 20.52 175.363 20.72C175.395 20.92 175.435 21.112 175.483 21.296C175.619 21.784 175.867 22.208 176.227 22.568C176.587 22.92 177.015 23.192 177.511 23.384C178.015 23.576 178.547 23.672 179.107 23.672C179.699 23.672 180.215 23.584 180.655 23.408C181.095 23.232 181.471 23.016 181.783 22.76C182.103 22.504 182.359 22.26 182.551 22.028C182.751 21.796 182.903 21.624 183.007 21.512C183.055 21.552 183.147 21.64 183.283 21.776C183.427 21.904 183.579 22.06 183.739 22.244C183.907 22.428 184.063 22.616 184.207 22.808C184.359 22.992 184.467 23.164 184.531 23.324ZM175.339 18.5C175.915 18.404 176.591 18.32 177.367 18.248C178.151 18.176 179.039 18.14 180.031 18.14C180.551 18.14 180.991 18.148 181.351 18.164C181.719 18.172 181.975 18.184 182.119 18.2C182.119 17.936 182.087 17.656 182.023 17.36C181.935 16.96 181.775 16.572 181.543 16.196C181.311 15.82 180.995 15.508 180.595 15.26C180.203 15.004 179.707 14.876 179.107 14.876C178.419 14.876 177.791 15.024 177.223 15.32C176.663 15.608 176.215 16.024 175.879 16.568C175.543 17.104 175.363 17.748 175.339 18.5Z" fill="white"/>
<defs>
<clipPath id="clip0_155_91">
<rect x="60" width="40" height="40" rx="20" fill="white"/>
</clipPath>
</defs>
</svg>
