<svg width="224" height="180" viewBox="0 0 224 180" fill="none" xmlns="http://www.w3.org/2000/svg">
<g clip-path="url(#clip0_57_70)">
<path d="M200.28 88.0087C200.28 89.6254 200.236 91.2308 200.149 92.8249C199.831 98.7845 198.905 104.696 197.385 110.468C197.383 110.47 197.383 110.47 197.385 110.473C197.186 111.236 196.974 111.997 196.75 112.751C196.74 112.787 196.731 112.821 196.718 112.855C196.388 113.986 196.034 115.106 195.658 116.215V116.218C189.745 133.648 178.517 148.79 163.55 159.516C148.583 170.242 130.63 176.012 112.213 176.017C70.5559 176.017 35.6574 147.118 26.4955 108.285C24.9293 101.64 24.1406 94.8355 24.1454 88.0087C24.1454 86.6521 24.1762 85.3028 24.2379 83.9608C24.9679 67.5546 30.3 51.6843 39.6253 38.1622C39.7372 37.9969 39.8516 37.8316 39.9683 37.6687C55.8837 14.8958 82.3088 0 112.213 0C154.475 0 189.783 29.7479 198.312 69.4345C198.313 69.4357 198.314 69.4375 198.314 69.4393C198.864 71.9969 199.3 74.5934 199.623 77.2288C200.062 80.8053 200.282 84.4054 200.28 88.0087Z" fill="#F2F2F2"/>
<path d="M223.213 161.825C222.555 164.201 221.528 166.459 220.17 168.518C217.133 173.105 212.789 176.613 208.013 179.421C207.682 179.618 207.346 179.81 207.011 180H203.661L203.544 179.733V179.73L203.408 179.421L203.391 179.385L203.383 179.421L203.25 180H201.605C201.469 179.808 201.335 179.616 201.204 179.421C201.011 179.137 200.826 178.85 200.651 178.558C200.342 178.048 200.066 177.519 199.824 176.973C199.795 176.912 199.771 176.852 199.746 176.791L199.856 176.672L199.401 174.683L200.316 174.532L199.313 171.442C199.35 171.328 199.391 171.214 199.435 171.099C199.997 169.677 201.053 168.615 202.306 167.723C203.595 166.801 205.096 166.062 206.475 165.294C207.123 164.932 207.76 164.55 208.38 164.146V164.144C209.173 163.631 209.943 163.082 210.689 162.498C210.702 162.49 210.714 162.481 210.726 162.471C210.736 162.464 210.746 162.456 210.755 162.447C214.099 159.836 216.93 156.626 219.102 152.982C219.102 152.982 219.102 152.982 219.103 152.982C219.103 152.982 219.103 152.982 219.103 152.982C219.104 152.981 219.104 152.981 219.104 152.981C219.104 152.981 219.104 152.98 219.104 152.98C219.177 152.863 219.245 152.747 219.313 152.627V152.625C220.203 151.096 220.968 149.499 221.603 147.848V147.845C221.651 147.724 221.695 147.602 221.741 147.481C221.804 147.588 221.865 147.695 221.924 147.801C221.924 147.801 221.924 147.802 221.925 147.802C221.925 147.802 221.925 147.802 221.925 147.802C221.926 147.802 221.926 147.803 221.926 147.803C221.926 147.803 221.926 147.804 221.926 147.804C224.286 152.022 224.51 157.103 223.213 161.825Z" fill="#F0F0F0"/>
<path d="M221.926 147.804C221.95 150.055 221.715 152.301 221.228 154.499C221.009 155.505 220.736 156.498 220.41 157.475C219.779 159.386 218.953 161.227 217.946 162.97C217.89 163.064 217.837 163.157 217.778 163.249V163.252C217.348 163.977 216.881 164.679 216.379 165.357C215.62 166.437 214.682 167.379 213.606 168.143C212.727 168.724 211.733 169.108 210.691 169.269C210.497 169.305 210.297 169.332 210.095 169.356C209.29 169.451 208.458 169.488 207.66 169.658C207.256 169.738 206.863 169.864 206.488 170.035C205.203 170.63 204.481 171.877 204.164 173.21C204.108 173.443 204.065 173.679 204.03 173.915C203.765 175.726 204.057 177.608 203.906 179.421C203.889 179.613 203.867 179.808 203.841 180H203.661L203.544 179.733V179.73C203.556 179.628 203.566 179.526 203.575 179.421C203.634 178.53 203.641 177.637 203.597 176.745C203.588 176.343 203.58 175.94 203.585 175.536C203.59 175.213 203.602 174.89 203.627 174.569V174.566C203.644 174.367 203.663 174.17 203.69 173.973C203.767 173.37 203.916 172.778 204.133 172.21C204.344 171.625 204.677 171.091 205.11 170.644C205.543 170.196 206.065 169.845 206.643 169.614C206.996 169.482 207.36 169.38 207.731 169.31C208.546 169.154 209.387 169.116 210.207 169.013C210.295 169.004 210.382 168.992 210.468 168.977C210.577 168.96 210.684 168.941 210.791 168.921C211.864 168.731 212.877 168.292 213.749 167.64C214.786 166.82 215.688 165.842 216.421 164.742C216.82 164.171 217.199 163.587 217.552 162.987C217.552 162.986 217.552 162.986 217.552 162.986C217.552 162.985 217.552 162.985 217.553 162.985C217.553 162.985 217.553 162.984 217.553 162.984C217.554 162.984 217.554 162.984 217.554 162.984C217.571 162.955 217.588 162.928 217.605 162.899L217.608 162.894C219.121 160.31 220.226 157.508 220.882 154.587C220.904 154.48 220.929 154.373 220.953 154.266C221.405 152.157 221.622 150.004 221.603 147.848V147.845C221.603 147.743 221.6 147.643 221.598 147.541C221.593 147.332 221.916 147.286 221.921 147.495C221.924 147.597 221.926 147.699 221.924 147.801C221.924 147.801 221.924 147.801 221.925 147.802C221.925 147.802 221.925 147.802 221.925 147.802C221.926 147.802 221.926 147.803 221.926 147.803C221.926 147.803 221.926 147.804 221.926 147.804Z" fill="white"/>
<path d="M217.639 163.183C218.566 163.654 219.631 163.78 220.642 163.539C221.653 163.297 222.546 162.705 223.16 161.867C223.284 161.697 223.026 161.496 222.902 161.667C222.331 162.448 221.499 163 220.557 163.223C219.615 163.446 218.624 163.324 217.763 162.881C217.576 162.785 217.453 163.088 217.639 163.183Z" fill="white"/>
<path d="M210.822 169.018C210.145 167.005 210.252 164.81 211.122 162.872C211.208 162.68 210.905 162.556 210.819 162.748C209.918 164.767 209.811 167.051 210.521 169.144C210.589 169.344 210.89 169.216 210.822 169.018V169.018Z" fill="white"/>
<path d="M221.047 154.296C220.65 154.188 220.287 153.984 219.988 153.702C219.69 153.419 219.467 153.067 219.339 152.677C219.273 152.477 218.972 152.604 219.037 152.803C219.181 153.233 219.428 153.622 219.757 153.935C220.085 154.248 220.486 154.475 220.923 154.598C220.963 154.613 221.008 154.612 221.047 154.596C221.087 154.579 221.119 154.548 221.136 154.509C221.152 154.469 221.152 154.424 221.135 154.384C221.119 154.344 221.087 154.312 221.047 154.296Z" fill="white"/>
<path d="M208.38 164.144V164.146C208.305 165.882 208.088 167.609 207.731 169.31V169.312C207.711 169.429 207.685 169.543 207.66 169.658C207.073 172.288 206.25 174.86 205.201 177.343C204.911 178.043 204.608 178.736 204.291 179.421C204.203 179.616 204.113 179.808 204.021 180H203.661L203.544 179.733V179.73L203.408 179.421L203.391 179.385L203.383 179.421L203.25 180H199.771L199.094 179.421L198.109 178.578L199.486 177.075L199.712 176.827L199.746 176.791L199.856 176.672L199.401 174.683L200.316 174.532L199.313 171.442L198.839 169.981L198.72 169.614L198.026 167.477L195.934 167.868L195.593 166.677C196.221 165.224 196.743 163.729 197.155 162.201C197.158 162.189 197.163 162.179 197.165 162.167C198.27 158.053 198.602 153.77 198.143 149.535V149.532C198.128 149.396 198.111 149.258 198.092 149.124V149.119C197.883 147.364 197.532 145.629 197.041 143.931C197.007 143.802 196.968 143.676 196.931 143.549C197.043 143.598 197.153 143.644 197.265 143.693L197.267 143.695H197.272C197.45 143.773 197.627 143.856 197.8 143.943C201.95 145.959 205.003 149.742 206.738 154.103C206.743 154.115 206.748 154.125 206.753 154.137C207.658 156.424 208.197 158.838 208.351 161.292C208.409 162.242 208.419 163.193 208.38 164.144Z" fill="#F0F0F0"/>
<path d="M202.067 180H201.683C201.561 179.803 201.43 179.611 201.298 179.421C201.089 179.127 200.873 178.839 200.651 178.558C200.459 178.315 200.267 178.074 200.075 177.834C199.875 177.583 199.678 177.333 199.486 177.075L199.712 176.827C199.749 176.876 199.785 176.925 199.824 176.973C200.447 177.792 201.121 178.58 201.697 179.421C201.826 179.611 201.95 179.803 202.067 180Z" fill="white"/>
<path d="M196.851 143.685C196.914 143.765 196.98 143.848 197.041 143.931C197.515 144.546 197.963 145.18 198.386 145.834C199.138 146.988 199.807 148.195 200.386 149.445C200.432 149.542 200.478 149.642 200.522 149.741C201.761 152.472 202.568 155.379 202.916 158.357C202.921 158.386 202.923 158.413 202.925 158.442C203.006 159.138 203.058 159.835 203.081 160.536C203.159 161.854 203.028 163.177 202.694 164.455C202.646 164.622 202.592 164.788 202.534 164.948C202.387 165.341 202.204 165.72 201.986 166.079C201.83 166.341 201.656 166.592 201.466 166.83C201.351 166.976 201.232 167.119 201.106 167.258C201.033 167.338 200.957 167.418 200.882 167.499C200.819 167.559 200.758 167.623 200.695 167.683C200.038 168.32 199.313 168.911 198.719 169.614L198.838 169.981C199.41 169.256 200.147 168.656 200.811 168.024C201.228 167.632 201.608 167.202 201.945 166.74C201.989 166.677 202.035 166.614 202.076 166.548C202.302 166.219 202.496 165.87 202.658 165.505C202.741 165.323 202.816 165.135 202.884 164.941C203.282 163.684 203.463 162.369 203.419 161.051C203.412 160.207 203.361 159.364 203.269 158.525C203.259 158.416 203.247 158.309 203.232 158.199C202.985 156.202 202.535 154.236 201.889 152.33C201.071 149.913 199.946 147.61 198.542 145.479C198.14 144.869 197.714 144.273 197.264 143.692C197.206 143.612 197.145 143.534 197.082 143.454C196.953 143.289 196.722 143.52 196.851 143.685Z" fill="white"/>
<path d="M203.116 158.556C204.14 158.374 205.065 157.834 205.728 157.033C206.39 156.232 206.746 155.222 206.731 154.183C206.73 154.14 206.713 154.1 206.683 154.07C206.653 154.04 206.612 154.023 206.57 154.023C206.527 154.022 206.486 154.038 206.455 154.067C206.425 154.097 206.406 154.136 206.404 154.179C206.419 155.146 206.088 156.087 205.47 156.832C204.852 157.577 203.987 158.076 203.033 158.24C202.826 158.276 202.91 158.592 203.116 158.556Z" fill="white"/>
<path d="M201.189 167.316C199.435 166.116 198.198 164.3 197.725 162.229C197.678 162.024 197.362 162.107 197.408 162.312C197.905 164.466 199.196 166.354 201.024 167.598C201.198 167.717 201.362 167.434 201.189 167.316H201.189Z" fill="white"/>
<path d="M200.483 149.409C200.101 149.562 199.688 149.618 199.279 149.572C198.871 149.526 198.481 149.379 198.143 149.145C197.97 149.024 197.807 149.307 197.978 149.427C198.352 149.684 198.784 149.845 199.235 149.898C199.686 149.95 200.143 149.89 200.566 149.725C200.607 149.713 200.642 149.686 200.663 149.649C200.685 149.612 200.692 149.568 200.682 149.526C200.671 149.484 200.644 149.448 200.606 149.427C200.569 149.405 200.525 149.399 200.483 149.409Z" fill="white"/>
<path d="M154.073 38.1633H0.241631C0.177059 38.1618 0.115608 38.1352 0.0704415 38.0891C0.0252753 38.0429 -1.52588e-05 37.9809 -1.52588e-05 37.9164C-1.52588e-05 37.8519 0.0252753 37.7899 0.0704415 37.7437C0.115608 37.6976 0.177059 37.671 0.241631 37.6696H154.073C154.138 37.671 154.199 37.6976 154.244 37.7437C154.29 37.7899 154.315 37.8519 154.315 37.9164C154.315 37.9809 154.29 38.0429 154.244 38.0891C154.199 38.1352 154.138 38.1618 154.073 38.1633Z" fill="#CACACA"/>
<path d="M5.68018 34.7073C7.1481 34.7073 8.33809 33.4916 8.33809 31.992C8.33809 30.4923 7.1481 29.2766 5.68018 29.2766C4.21225 29.2766 3.02226 30.4923 3.02226 31.992C3.02226 33.4916 4.21225 34.7073 5.68018 34.7073Z" fill="#3F3D56"/>
<path d="M14.8621 34.7073C16.33 34.7073 17.52 33.4916 17.52 31.992C17.52 30.4923 16.33 29.2766 14.8621 29.2766C13.3941 29.2766 12.2041 30.4923 12.2041 31.992C12.2041 33.4916 13.3941 34.7073 14.8621 34.7073Z" fill="#3F3D56"/>
<path d="M24.0439 34.7073C25.5119 34.7073 26.7019 33.4916 26.7019 31.992C26.7019 30.4923 25.5119 29.2766 24.0439 29.2766C22.576 29.2766 21.386 30.4923 21.386 31.992C21.386 33.4916 22.576 34.7073 24.0439 34.7073Z" fill="#3F3D56"/>
<path d="M148.571 29.9497H142.049C141.919 29.9523 141.796 30.0054 141.706 30.0977C141.615 30.1899 141.564 30.314 141.564 30.4432C141.564 30.5725 141.615 30.6965 141.706 30.7888C141.796 30.8811 141.919 30.9342 142.049 30.9368H148.571C148.7 30.9342 148.823 30.8811 148.914 30.7888C149.004 30.6965 149.055 30.5725 149.055 30.4432C149.055 30.314 149.004 30.1899 148.914 30.0977C148.823 30.0054 148.7 29.9523 148.571 29.9497Z" fill="#3F3D56"/>
<path d="M148.571 31.8022H142.049C141.919 31.8048 141.796 31.8579 141.706 31.9502C141.615 32.0425 141.564 32.1666 141.564 32.2958C141.564 32.425 141.615 32.5491 141.706 32.6413C141.796 32.7336 141.919 32.7867 142.049 32.7893H148.571C148.7 32.7867 148.823 32.7336 148.914 32.6413C149.004 32.5491 149.055 32.425 149.055 32.2958C149.055 32.1666 149.004 32.0425 148.914 31.9502C148.823 31.8579 148.7 31.8048 148.571 31.8022Z" fill="#3F3D56"/>
<path d="M148.571 33.6523H142.049C141.919 33.6549 141.796 33.708 141.706 33.8003C141.615 33.8926 141.564 34.0167 141.564 34.1459C141.564 34.2751 141.615 34.3992 141.706 34.4914C141.796 34.5837 141.919 34.6368 142.049 34.6394H148.571C148.7 34.6368 148.823 34.5837 148.914 34.4914C149.004 34.3992 149.055 34.2751 149.055 34.1459C149.055 34.0167 149.004 33.8926 148.914 33.8003C148.823 33.708 148.7 33.6549 148.571 33.6523Z" fill="#3F3D56"/>
<path d="M40.5449 48.2224H33.6382C29.7429 55.8861 27.0008 64.0824 25.5005 72.5464H40.5449C41.0244 72.5472 41.4993 72.4534 41.9424 72.2705C42.3855 72.0875 42.7881 71.8189 43.1271 71.4801C43.4662 71.1413 43.7349 70.739 43.918 70.2961C44.1011 69.8533 44.195 69.3787 44.1941 68.8996V51.8668C44.1928 50.9002 43.8079 49.9736 43.1237 49.2904C42.4396 48.6071 41.5121 48.223 40.5449 48.2224Z" fill="#CCCCCC"/>
<path d="M91.7091 48.2224H60.416C59.4488 48.223 58.5214 48.6071 57.8372 49.2904C57.1531 49.9736 56.7681 50.9002 56.7668 51.8668V68.8996C56.768 69.8664 57.1528 70.7933 57.837 71.477C58.5211 72.1606 59.4486 72.5452 60.416 72.5464H91.7091C92.6766 72.5452 93.6041 72.1606 94.2882 71.477C94.9723 70.7933 95.3571 69.8664 95.3583 68.8996V51.8668C95.357 50.9002 94.9721 49.9736 94.2879 49.2904C93.6038 48.6071 92.6763 48.223 91.7091 48.2224Z" fill="#CCCCCC"/>
<path d="M142.873 48.2224H111.58C110.613 48.223 109.686 48.6071 109.001 49.2904C108.317 49.9736 107.932 50.9002 107.931 51.8668V68.8996C107.932 69.8664 108.317 70.7933 109.001 71.477C109.685 72.1606 110.613 72.5452 111.58 72.5464H142.873C143.841 72.5452 144.768 72.1606 145.452 71.4769C146.136 70.7933 146.521 69.8664 146.522 68.8996V51.8668C146.521 50.9002 146.136 49.9736 145.452 49.2904C144.768 48.6071 143.841 48.223 142.873 48.2224Z" fill="#CCCCCC"/>
<path d="M40.5449 83.9608H24.2379C24.177 85.3028 24.1462 86.6521 24.1454 88.0087C24.1406 94.8355 24.9293 101.64 26.4955 108.285H40.5449C41.5124 108.284 42.4399 107.899 43.124 107.215C43.8081 106.532 44.1929 105.605 44.1941 104.638V87.6052C44.1928 86.6386 43.8079 85.712 43.1237 85.0288C42.4396 84.3455 41.5121 83.9614 40.5449 83.9608Z" fill="#CCCCCC"/>
<path d="M91.7091 83.9608H60.416C59.4488 83.9614 58.5214 84.3455 57.8372 85.0288C57.1531 85.712 56.7681 86.6386 56.7668 87.6052V104.638C56.768 105.605 57.1528 106.532 57.837 107.215C58.5211 107.899 59.4486 108.284 60.416 108.285H91.7091C92.6766 108.284 93.6041 107.899 94.2882 107.215C94.9723 106.532 95.3571 105.605 95.3583 104.638V87.6052C95.357 86.6386 94.9721 85.712 94.2879 85.0288C93.6038 84.3455 92.6763 83.9614 91.7091 83.9608Z" fill="#CCCCCC"/>
<path d="M142.873 83.9608H111.58C110.613 83.9614 109.686 84.3455 109.001 85.0288C108.317 85.712 107.932 86.6386 107.931 87.6052V104.638C107.932 105.605 108.317 106.532 109.001 107.215C109.685 107.899 110.613 108.284 111.58 108.285H142.873C142.973 108.285 143.073 108.28 143.173 108.27C143.563 108.241 143.947 108.147 144.306 107.991C144.958 107.712 145.514 107.25 145.908 106.661C146.301 106.071 146.515 105.38 146.523 104.672V87.6052C146.521 86.6386 146.136 85.712 145.452 85.0288C144.768 84.3455 143.841 83.9614 142.873 83.9608Z" fill="#CCCCCC"/>
<path d="M41.198 76.6143C45.1965 76.6143 48.4379 73.3751 48.4379 69.3793C48.4379 65.3835 45.1965 62.1443 41.198 62.1443C37.1996 62.1443 33.9582 65.3835 33.9582 69.3793C33.9582 73.3751 37.1996 76.6143 41.198 76.6143Z" fill="#B3013D"/>
<path d="M40.2104 73.1448C40.0854 73.1448 39.9621 73.1157 39.8503 73.0598C39.7384 73.0039 39.6412 72.9227 39.5662 72.8228L37.5911 70.191C37.5276 70.1064 37.4814 70.0102 37.4552 69.9078C37.429 69.8055 37.4231 69.6989 37.4381 69.5943C37.4531 69.4897 37.4885 69.389 37.5424 69.2981C37.5963 69.2071 37.6675 69.1277 37.7522 69.0643C37.8368 69.0009 37.933 68.9548 38.0355 68.9285C38.1379 68.9023 38.2445 68.8965 38.3492 68.9115C38.4539 68.9264 38.5546 68.9618 38.6456 69.0157C38.7366 69.0695 38.8161 69.1407 38.8796 69.2253L40.1718 70.9469L43.4906 65.9721C43.5492 65.884 43.6246 65.8083 43.7125 65.7494C43.8004 65.6905 43.8991 65.6494 44.0028 65.6286C44.1066 65.6078 44.2135 65.6077 44.3173 65.6282C44.4211 65.6487 44.5199 65.6894 44.6079 65.7481C44.696 65.8067 44.7716 65.8822 44.8305 65.9701C44.8894 66.058 44.9303 66.1566 44.951 66.2603C44.9717 66.3641 44.9717 66.4708 44.9511 66.5746C44.9305 66.6783 44.8896 66.777 44.8308 66.8649L40.8805 72.7864C40.8091 72.8935 40.713 72.9819 40.6003 73.0442C40.4876 73.1065 40.3615 73.1409 40.2328 73.1445C40.2253 73.1446 40.2179 73.1448 40.2104 73.1448Z" fill="white"/>
<path d="M93.9898 77.3436C97.9882 77.3436 101.23 74.1044 101.23 70.1086C101.23 66.1129 97.9882 62.8737 93.9898 62.8737C89.9913 62.8737 86.75 66.1129 86.75 70.1086C86.75 74.1044 89.9913 77.3436 93.9898 77.3436Z" fill="#B3013D"/>
<path d="M93.0021 73.8742C92.8771 73.8742 92.7538 73.8451 92.642 73.7892C92.5302 73.7333 92.4329 73.6522 92.3579 73.5522L90.3828 70.9204C90.3193 70.8359 90.2732 70.7397 90.2469 70.6373C90.2207 70.5349 90.2149 70.4284 90.2298 70.3237C90.2448 70.2191 90.2802 70.1185 90.3341 70.0275C90.388 69.9366 90.4593 69.8571 90.5439 69.7937C90.6285 69.7303 90.7248 69.6842 90.8272 69.658C90.9297 69.6317 91.0363 69.6259 91.141 69.6409C91.2457 69.6558 91.3464 69.6912 91.4374 69.7451C91.5284 69.7989 91.6079 69.8702 91.6713 69.9547L92.9635 71.6764L96.2824 66.7015C96.4009 66.5242 96.5851 66.4011 96.7944 66.3594C97.0037 66.3177 97.2211 66.3607 97.3987 66.479C97.5762 66.5973 97.6996 66.7813 97.7416 66.9904C97.7835 67.1995 97.7407 67.4167 97.6225 67.5943L93.6723 73.5158C93.6008 73.6229 93.5047 73.7113 93.392 73.7736C93.2793 73.8359 93.1533 73.8703 93.0245 73.8739C93.0171 73.8741 93.0096 73.8742 93.0021 73.8742Z" fill="white"/>
<path d="M197.375 109.096L195.109 87.1752L194.511 78.1535L200.854 77.0073C200.854 77.0073 201.804 83.2093 202.635 86.8489C203.455 90.4405 201.542 108.614 201.492 109.094C201.958 109.51 202.286 110.058 202.433 110.665C202.581 111.271 202.541 111.909 202.318 112.492C202.095 113.076 201.7 113.578 201.186 113.932C200.671 114.286 200.061 114.476 199.436 114.476C198.811 114.477 198.201 114.287 197.686 113.934C197.171 113.58 196.776 113.078 196.553 112.495C196.329 111.912 196.288 111.274 196.435 110.667C196.582 110.06 196.91 109.512 197.375 109.096Z" fill="#EFA483"/>
<path d="M181.142 174.346L177.996 175.064L173.726 163.281L178.368 162.221L181.142 174.346Z" fill="#EFA483"/>
<path d="M181.71 173.136L180.908 173.319L180.825 173.338L177.154 172.74L177.047 172.723L175.514 174.551C174.467 174.791 173.558 175.436 172.987 176.345C172.416 177.254 172.229 178.353 172.468 179.399L172.473 179.421L172.5 179.528L172.967 179.421L182.642 177.209L181.71 173.136Z" fill="#2F2E41"/>
<path d="M199.895 176.401H196.668L195.133 163.963L199.895 163.963L199.895 176.401Z" fill="#EFA483"/>
<path d="M199.811 175.349L199.528 175.235L196.366 173.948L196.263 173.907L194.363 175.349C193.832 175.349 193.305 175.453 192.814 175.656C192.322 175.86 191.876 176.157 191.5 176.533C191.124 176.909 190.825 177.355 190.622 177.846C190.418 178.337 190.313 178.863 190.313 179.394V179.526L199.219 179.528H200.718V175.349H199.811Z" fill="#2F2E41"/>
<path d="M194.987 109.833L197.701 135.598C197.701 135.598 201.314 161.397 200.635 164.957C199.957 168.517 200.805 169.025 200.805 169.025L194.614 168.585C194.614 168.585 194.783 166.381 193.766 165.364C192.748 164.347 193.257 161.296 193.257 161.296L181.247 119.325L173.953 141.362C173.953 141.362 178.561 159.232 178.392 159.571C178.222 159.91 181.311 167.351 181.311 167.351L174.4 169.641C174.4 169.641 175.248 166.929 174.061 166.082C172.873 165.234 171.855 165.912 172.873 164.386C173.891 162.861 164.854 151.657 165.053 144.436C165.113 142.264 165.185 139.933 165.272 137.545C165.731 124.91 166.599 110.672 168.186 109.833C171.07 108.307 194.987 109.833 194.987 109.833Z" fill="#2F2E41"/>
<path d="M182.134 57.6635C185.821 57.6635 188.809 54.6768 188.809 50.9926C188.809 47.3084 185.821 44.3218 182.134 44.3218C178.447 44.3218 175.459 47.3084 175.459 50.9926C175.459 54.6768 178.447 57.6635 182.134 57.6635Z" fill="#EFA483"/>
<path d="M204.423 91.7413L195.358 94.0406L195.421 91.4982L194.733 90.7688L193.359 83.5732L191.899 64.9438L196.908 67.5986L196.914 67.6033C197.789 68.5649 198.52 69.6473 199.086 70.8173C200.974 74.6533 202.788 83.1028 203.738 88.0104C203.77 88.1133 203.833 88.204 203.918 88.2705C204.389 88.7026 204.697 89.2839 204.789 89.9163C204.88 90.5486 204.751 91.1932 204.423 91.7413V91.7413Z" fill="#3F3D56"/>
<path d="M150.858 99.9851C150.858 99.9851 163.369 86.8036 163.486 86.5552C164.36 79.9228 166.873 76.9972 167.25 77.3148L173.738 79.5609C173.738 79.5609 171.808 85.6678 170.502 89.2951C169.253 92.7612 154.864 101.227 154.624 101.645C154.882 102.214 154.961 102.848 154.85 103.462C154.74 104.077 154.445 104.644 154.006 105.088C153.566 105.531 153.002 105.831 152.388 105.948C151.774 106.064 151.139 105.991 150.567 105.739C149.996 105.487 149.514 105.068 149.186 104.536C148.858 104.005 148.699 103.386 148.731 102.762C148.762 102.139 148.983 101.539 149.362 101.043C149.742 100.547 150.264 100.178 150.858 99.9851Z" fill="#EFA483"/>
<path d="M176.855 66.1437C176.855 66.1437 171.238 63.3926 169.059 68.7958C167.865 71.8462 164.81 79.2494 163.288 83.8067C163.277 83.8356 163.264 83.8631 163.246 83.8884C162.839 84.493 162.619 85.2041 162.614 85.9328C162.615 85.9859 162.609 86.0388 162.598 86.0906C162.598 86.0906 168.771 87.2924 170.607 90.5258L171.335 89.7361L171.464 89.1828L176.855 66.1437Z" fill="#3F3D56"/>
<path d="M197.294 112.641C184.366 115.309 167.235 110.722 167.235 110.722L171.805 90.925L170.18 70.2071C169.981 67.6735 171.425 65.2986 173.672 64.457L176.774 63.296L179.338 59.6278L186.661 59.8679L189.589 63.719L191.899 64.9439L196.908 67.5986L196.93 67.6096V67.6206L195.358 82.8573L194.41 92.0442C194.41 92.0442 197.289 102.377 196.699 103.747C196.108 105.115 196.621 104.454 196.765 105.186C196.908 105.917 197.347 105.963 197.413 107.404C197.481 108.843 197.294 112.641 197.294 112.641Z" fill="#3F3D56"/>
<path d="M189.375 48.6171C188.848 48.097 189.642 46.7202 189.492 45.995C189.32 45.1635 188.403 45.1392 188.184 44.3188C187.949 43.4362 187.008 42.9557 186.138 42.676C183.908 41.9629 181.528 41.8539 179.242 42.3604C178.23 42.6073 177.234 42.9139 176.258 43.2788C175.585 43.5156 176.234 42.8712 175.561 43.108C175.306 43.1648 175.081 43.3139 174.93 43.5266C174.809 43.7553 174.972 44.1211 175.227 44.0748C174.404 44.4371 173.582 44.7994 172.76 45.1616C173.221 45.6443 173.682 46.1269 174.143 46.6096C173.488 46.4232 172.789 47.2041 173.048 47.8342C173.152 48.0331 173.302 48.2038 173.487 48.3315C173.672 48.4592 173.885 48.5402 174.108 48.5674C174.848 48.7114 174.286 49.4156 175.041 49.4019C175.795 49.3882 181.054 47.8431 181.421 48.502C181.682 48.9711 181.653 49.5925 182.026 49.979C182.503 50.4735 183.336 50.2926 183.943 49.9707C184.55 49.6488 185.166 49.2063 185.849 49.2835C186.562 49.3641 187.101 50.6808 187.277 51.3761C187.452 52.0713 187.341 52.8029 187.23 53.5112C187.083 54.4415 185.613 55.3717 185.467 56.302C187.098 56.7527 188.847 55.3186 189.492 52.8246C189.428 51.2481 190.499 49.7253 189.375 48.6171Z" fill="#2F2E41"/>
<path d="M144.592 111.866C148.59 111.866 151.832 108.627 151.832 104.631C151.832 100.636 148.59 97.3965 144.592 97.3965C140.594 97.3965 137.352 100.636 137.352 104.631C137.352 108.627 140.594 111.866 144.592 111.866Z" fill="#B3013D"/>
<path d="M143.604 108.397C143.479 108.397 143.356 108.368 143.244 108.312C143.132 108.256 143.035 108.175 142.96 108.075L140.985 105.443C140.922 105.359 140.875 105.262 140.849 105.16C140.823 105.058 140.817 104.951 140.832 104.846C140.847 104.742 140.882 104.641 140.936 104.55C140.99 104.459 141.061 104.38 141.146 104.316C141.231 104.253 141.327 104.207 141.429 104.181C141.532 104.155 141.638 104.149 141.743 104.164C141.848 104.179 141.949 104.214 142.04 104.268C142.131 104.322 142.21 104.393 142.274 104.477L143.566 106.199L146.885 101.224C146.943 101.136 147.019 101.061 147.106 101.002C147.194 100.943 147.293 100.902 147.397 100.881C147.501 100.86 147.607 100.86 147.711 100.88C147.815 100.901 147.914 100.942 148.002 101C148.09 101.059 148.166 101.134 148.224 101.222C148.283 101.31 148.324 101.409 148.345 101.513C148.366 101.616 148.366 101.723 148.345 101.827C148.324 101.931 148.284 102.029 148.225 102.117L144.274 108.039C144.203 108.146 144.107 108.234 143.994 108.296C143.882 108.359 143.755 108.393 143.627 108.397C143.619 108.397 143.612 108.397 143.604 108.397Z" fill="white"/>
<path d="M222.588 179.711C222.588 179.749 222.581 179.786 222.566 179.822C222.552 179.857 222.53 179.889 222.503 179.916C222.476 179.942 222.444 179.964 222.409 179.978C222.374 179.993 222.336 180 222.298 180H154.109C154.033 180 153.959 179.97 153.905 179.915C153.85 179.861 153.82 179.787 153.82 179.711C153.82 179.634 153.85 179.56 153.905 179.506C153.959 179.452 154.033 179.421 154.109 179.421H222.298C222.336 179.421 222.374 179.429 222.409 179.443C222.444 179.458 222.476 179.479 222.503 179.506C222.53 179.533 222.552 179.565 222.566 179.6C222.581 179.635 222.588 179.673 222.588 179.711Z" fill="#CCCCCC"/>
</g>
<defs>
<clipPath id="clip0_57_70">
<rect width="224" height="180" fill="white"/>
</clipPath>
</defs>
</svg>
