<svg width="203" height="153" viewBox="0 0 203 153" fill="none" xmlns="http://www.w3.org/2000/svg">
<g clip-path="url(#clip0_56_952)">
<path d="M116.983 7.44655C118.724 11.1463 115.035 12.1942 110.808 14.1772C106.581 16.1602 103.418 18.3273 101.677 14.6276C99.936 10.9279 98.5232 3.58466 104.502 0.779359C110.688 -2.12258 115.242 3.74683 116.983 7.44655Z" fill="#2F2E41"/>
<path d="M108.36 14.7224C111.502 14.7224 114.05 12.1789 114.05 9.04137C114.05 5.90383 111.502 3.36035 108.36 3.36035C105.217 3.36035 102.67 5.90383 102.67 9.04137C102.67 12.1789 105.217 14.7224 108.36 14.7224Z" fill="#FFB8B8"/>
<path d="M136.548 34.2355C136.351 33.9788 136.155 33.7266 135.955 33.4815C135.698 33.1623 135.44 32.8531 135.179 32.5539C132.23 29.1561 129.093 27.0166 125.639 26.7876H125.635L125.584 26.783L118.701 33.4815L116.361 35.7575L116.412 35.8824L117.675 39.0212H139.796C138.8 37.3695 137.715 35.772 136.548 34.2355Z" fill="#2F2E41"/>
<path d="M102.172 11.3286L104.209 10.373L103.925 7.43932L105.287 9.86712L106.261 9.41037L106.095 7.69906L106.89 9.11526L114.123 5.72146C113.444 4.27793 112.218 3.16298 110.715 2.62189C109.213 2.08081 107.556 2.15791 106.11 2.83624L105.062 3.3281C103.616 4.00643 102.5 5.23042 101.958 6.7308C101.416 8.23119 101.493 9.88507 102.172 11.3286Z" fill="#2F2E41"/>
<path d="M149.313 114.448H30.5072C29.4938 114.447 28.5222 114.045 27.8056 113.329C27.089 112.614 26.6859 111.644 26.6847 110.632V39.3551C26.6856 38.6139 26.9809 37.9032 27.5058 37.379C28.0308 36.8548 28.7426 36.5599 29.4851 36.5591H150.287C151.042 36.5599 151.766 36.8599 152.3 37.3931C152.834 37.9264 153.135 38.6494 153.135 39.4035V110.632C153.134 111.644 152.731 112.614 152.015 113.329C151.298 114.045 150.326 114.447 149.313 114.448Z" fill="#F2F2F2"/>
<path d="M34.2138 110.632H145.606C146.589 110.632 147.532 110.242 148.227 109.548C148.923 108.854 149.313 107.913 149.313 106.931V46.4345C149.313 45.453 148.923 44.5116 148.227 43.8176C147.532 43.1235 146.589 42.7336 145.606 42.7336H34.2138C33.2307 42.7336 32.2879 43.1235 31.5928 43.8176C30.8977 44.5116 30.5072 45.453 30.5072 46.4345V106.931C30.5072 107.913 30.8977 108.854 31.5928 109.548C32.2879 110.242 33.2307 110.632 34.2138 110.632Z" fill="white"/>
<path d="M153.082 39.1369H26.6311V37.1938C26.6326 36.1786 27.0373 35.2055 27.7565 34.4878C28.4757 33.7702 29.4506 33.3667 30.4674 33.3658H149.246C150.263 33.3667 151.238 33.7702 151.957 34.4878C152.676 35.2055 153.081 36.1786 153.082 37.1938V39.1369Z" fill="#B3013D"/>
<path d="M33.6031 37.2479C34.1511 37.2479 34.5954 36.8043 34.5954 36.2571C34.5954 35.7099 34.1511 35.2664 33.6031 35.2664C33.055 35.2664 32.6108 35.7099 32.6108 36.2571C32.6108 36.8043 33.055 37.2479 33.6031 37.2479Z" fill="white"/>
<path d="M37.3696 37.2479C37.9177 37.2479 38.362 36.8043 38.362 36.2571C38.362 35.7099 37.9177 35.2664 37.3696 35.2664C36.8216 35.2664 36.3773 35.7099 36.3773 36.2571C36.3773 36.8043 36.8216 37.2479 37.3696 37.2479Z" fill="white"/>
<path d="M41.1362 37.2479C41.6843 37.2479 42.1285 36.8043 42.1285 36.2571C42.1285 35.7099 41.6843 35.2664 41.1362 35.2664C40.5882 35.2664 40.1439 35.7099 40.1439 36.2571C40.1439 36.8043 40.5882 37.2479 41.1362 37.2479Z" fill="white"/>
<path d="M93.3859 97.5121H83.4243C82.8409 97.5115 82.2815 97.2797 81.8689 96.8678C81.4563 96.4558 81.2242 95.8973 81.2235 95.3147V85.3688C81.2242 84.7862 81.4563 84.2277 81.8689 83.8157C82.2815 83.4038 82.8409 83.172 83.4243 83.1714H93.3859C93.9694 83.172 94.5287 83.4038 94.9413 83.8157C95.3539 84.2277 95.586 84.7862 95.5867 85.3688V95.3147C95.586 95.8973 95.3539 96.4558 94.9413 96.8678C94.5287 97.2797 93.9694 97.5115 93.3859 97.5121ZM83.4243 83.634C82.9637 83.6345 82.522 83.8174 82.1963 84.1427C81.8706 84.4679 81.6874 84.9088 81.6869 85.3688V95.3147C81.6874 95.7747 81.8706 96.2156 82.1963 96.5408C82.522 96.8661 82.9637 97.049 83.4243 97.0495H93.3859C93.8465 97.049 94.2881 96.8661 94.6139 96.5408C94.9396 96.2156 95.1228 95.7747 95.1233 95.3147V85.3688C95.1228 84.9088 94.9396 84.4679 94.6139 84.1427C94.2881 83.8174 93.8465 83.6345 93.3859 83.634H83.4243Z" fill="#CCCCCC"/>
<path d="M91.4167 94.7365H85.3935C85.2092 94.7363 85.0326 94.6631 84.9023 94.533C84.772 94.4029 84.6987 94.2266 84.6985 94.0426V86.6409C84.6987 86.457 84.772 86.2806 84.9023 86.1505C85.0326 86.0204 85.2092 85.9472 85.3935 85.947H89.7579C89.9162 85.9472 90.0698 86.0011 90.1933 86.1001L91.852 87.4309C91.9332 87.4958 91.9988 87.5781 92.0438 87.6717C92.0887 87.7654 92.112 87.868 92.1117 87.9718V94.0426C92.1115 94.2266 92.0382 94.4029 91.9079 94.533C91.7776 94.6631 91.601 94.7363 91.4167 94.7365ZM85.3935 86.4096C85.3321 86.4097 85.2732 86.4341 85.2298 86.4775C85.1863 86.5208 85.1619 86.5796 85.1618 86.6409V94.0426C85.1619 94.1039 85.1863 94.1627 85.2298 94.2061C85.2732 94.2494 85.3321 94.2738 85.3935 94.2739H91.4167C91.4781 94.2738 91.537 94.2494 91.5804 94.2061C91.6239 94.1627 91.6483 94.1039 91.6484 94.0426V87.9718C91.6485 87.9372 91.6407 87.903 91.6257 87.8718C91.6108 87.8406 91.5889 87.8132 91.5619 87.7916L89.9029 86.4606C89.8617 86.4276 89.8106 86.4097 89.7578 86.4096H85.3935Z" fill="#CCCCCC"/>
<path d="M90.2584 89.1853H86.5518C86.4904 89.1853 86.4314 89.1609 86.388 89.1175C86.3445 89.0741 86.3201 89.0153 86.3201 88.954C86.3201 88.8926 86.3445 88.8338 86.388 88.7904C86.4314 88.747 86.4904 88.7227 86.5518 88.7227H90.2584C90.3198 88.7227 90.3788 88.747 90.4222 88.7904C90.4657 88.8338 90.4901 88.8926 90.4901 88.954C90.4901 89.0153 90.4657 89.0741 90.4222 89.1175C90.3788 89.1609 90.3198 89.1853 90.2584 89.1853Z" fill="#CCCCCC"/>
<path d="M90.2584 90.5731H86.5518C86.4904 90.5731 86.4314 90.5487 86.388 90.5053C86.3445 90.462 86.3201 90.4031 86.3201 90.3418C86.3201 90.2804 86.3445 90.2216 86.388 90.1782C86.4314 90.1348 86.4904 90.1105 86.5518 90.1105H90.2584C90.3198 90.1105 90.3788 90.1348 90.4222 90.1782C90.4657 90.2216 90.4901 90.2804 90.4901 90.3418C90.4901 90.4031 90.4657 90.462 90.4222 90.5053C90.3788 90.5487 90.3198 90.5731 90.2584 90.5731Z" fill="#CCCCCC"/>
<path d="M90.2584 91.9609H86.5518C86.4904 91.9609 86.4314 91.9365 86.388 91.8931C86.3445 91.8498 86.3201 91.7909 86.3201 91.7296C86.3201 91.6682 86.3445 91.6094 86.388 91.566C86.4314 91.5227 86.4904 91.4983 86.5518 91.4983H90.2584C90.3198 91.4983 90.3788 91.5227 90.4222 91.566C90.4657 91.6094 90.4901 91.6682 90.4901 91.7296C90.4901 91.7909 90.4657 91.8498 90.4222 91.8931C90.3788 91.9365 90.3198 91.9609 90.2584 91.9609Z" fill="#CCCCCC"/>
<path d="M117.016 97.5121H107.054C106.471 97.5115 105.911 97.2797 105.499 96.8678C105.086 96.4558 104.854 95.8973 104.853 95.3147V85.3688C104.854 84.7862 105.086 84.2277 105.499 83.8157C105.911 83.4038 106.471 83.172 107.054 83.1714H117.016C117.599 83.172 118.158 83.4038 118.571 83.8157C118.984 84.2277 119.216 84.7862 119.216 85.3688V95.3147C119.216 95.8973 118.984 96.4558 118.571 96.8678C118.158 97.2797 117.599 97.5115 117.016 97.5121ZM107.054 83.634C106.593 83.6345 106.152 83.8174 105.826 84.1427C105.5 84.4679 105.317 84.9088 105.317 85.3688V95.3147C105.317 95.7747 105.5 96.2156 105.826 96.5408C106.152 96.8661 106.593 97.049 107.054 97.0495H117.016C117.476 97.049 117.918 96.8661 118.244 96.5408C118.569 96.2156 118.752 95.7747 118.753 95.3147V85.3688C118.752 84.9088 118.569 84.4679 118.244 84.1427C117.918 83.8174 117.476 83.6345 117.016 83.634H107.054Z" fill="#CCCCCC"/>
<path d="M115.278 92.886H108.791C108.607 92.8858 108.431 92.8126 108.3 92.6825C108.17 92.5525 108.097 92.3761 108.096 92.1921V88.4913C108.097 88.3073 108.17 88.1309 108.3 88.0008C108.431 87.8707 108.607 87.7976 108.791 87.7974H115.278C115.462 87.7976 115.639 87.8707 115.769 88.0008C115.9 88.1309 115.973 88.3073 115.973 88.4913V92.1921C115.973 92.3761 115.9 92.5525 115.769 92.6825C115.639 92.8126 115.462 92.8858 115.278 92.886ZM108.791 88.26C108.73 88.26 108.671 88.2844 108.628 88.3278C108.584 88.3711 108.56 88.4299 108.56 88.4913V92.1921C108.56 92.2534 108.584 92.3122 108.628 92.3556C108.671 92.399 108.73 92.4233 108.791 92.4234H115.278C115.339 92.4233 115.398 92.399 115.442 92.3556C115.485 92.3122 115.51 92.2534 115.51 92.1921V88.4913C115.51 88.4299 115.485 88.3711 115.442 88.3278C115.398 88.2844 115.339 88.26 115.278 88.26H108.791Z" fill="#CCCCCC"/>
<path d="M112.035 90.952C111.905 90.9522 111.777 90.9159 111.666 90.8473L108.205 88.6876C108.153 88.655 108.116 88.6031 108.103 88.5434C108.089 88.4837 108.1 88.4209 108.132 88.369C108.165 88.317 108.216 88.2801 108.276 88.2662C108.336 88.2524 108.399 88.2628 108.451 88.2952L111.912 90.455C111.949 90.4778 111.992 90.4899 112.035 90.4899C112.078 90.4899 112.121 90.4778 112.158 90.455L115.619 88.2952C115.671 88.2628 115.733 88.2524 115.793 88.2662C115.853 88.2801 115.905 88.317 115.937 88.369C115.97 88.4209 115.981 88.4837 115.967 88.5434C115.953 88.6031 115.916 88.655 115.864 88.6876L112.403 90.8473C112.293 90.916 112.165 90.9522 112.035 90.952Z" fill="#CCCCCC"/>
<path d="M69.7562 97.5121H59.7947C59.2112 97.5115 58.6518 97.2797 58.2392 96.8678C57.8266 96.4558 57.5945 95.8973 57.5939 95.3147V85.3688C57.5945 84.7862 57.8266 84.2277 58.2392 83.8157C58.6518 83.4038 59.2112 83.172 59.7947 83.1714H69.7562C70.3397 83.172 70.8991 83.4038 71.3117 83.8157C71.7243 84.2277 71.9563 84.7862 71.957 85.3688V95.3147C71.9563 95.8973 71.7243 96.4558 71.3117 96.8678C70.8991 97.2797 70.3397 97.5115 69.7562 97.5121ZM59.7947 83.634C59.334 83.6345 58.8924 83.8174 58.5667 84.1427C58.2409 84.4679 58.0577 84.9088 58.0572 85.3688V95.3147C58.0577 95.7747 58.2409 96.2156 58.5667 96.5408C58.8924 96.8661 59.334 97.049 59.7947 97.0495H69.7562C70.2168 97.049 70.6585 96.8661 70.9842 96.5408C71.3099 96.2156 71.4932 95.7747 71.4937 95.3147V85.3688C71.4932 84.9088 71.3099 84.4679 70.9842 84.1427C70.6585 83.8174 70.2168 83.6345 69.7562 83.634H59.7947Z" fill="#CCCCCC"/>
<path d="M68.0187 92.886H61.5321C61.3479 92.8858 61.1712 92.8126 61.0409 92.6825C60.9106 92.5525 60.8374 92.3761 60.8372 92.1921V88.4913C60.8374 88.3073 60.9106 88.1309 61.0409 88.0008C61.1712 87.8707 61.3479 87.7976 61.5321 87.7974H68.0187C68.203 87.7976 68.3796 87.8707 68.5099 88.0008C68.6402 88.1309 68.7135 88.3073 68.7137 88.4913V92.1921C68.7135 92.3761 68.6402 92.5525 68.5099 92.6825C68.3796 92.8126 68.203 92.8858 68.0187 92.886ZM61.5321 88.26C61.4707 88.26 61.4118 88.2844 61.3684 88.3278C61.325 88.3711 61.3005 88.4299 61.3005 88.4913V92.1921C61.3005 92.2534 61.325 92.3122 61.3684 92.3556C61.4118 92.399 61.4707 92.4233 61.5321 92.4234H68.0187C68.0801 92.4233 68.139 92.399 68.1825 92.3556C68.2259 92.3122 68.2503 92.2534 68.2504 92.1921V88.4913C68.2503 88.4299 68.2259 88.3711 68.1825 88.3278C68.139 88.2844 68.0801 88.26 68.0187 88.26H61.5321Z" fill="#CCCCCC"/>
<path d="M66.9906 92.8861H62.3286C62.2473 92.8861 62.1674 92.8648 62.0969 92.8242C62.0265 92.7836 61.968 92.7252 61.9273 92.6548C61.8866 92.5845 61.8652 92.5047 61.8652 92.4235C61.8653 92.3423 61.8867 92.2625 61.9274 92.1922L63.3316 89.7635C63.3723 89.6932 63.4308 89.6348 63.5012 89.5942C63.5717 89.5536 63.6516 89.5322 63.7329 89.5322C63.8142 89.5322 63.8941 89.5536 63.9646 89.5942C64.035 89.6348 64.0935 89.6932 64.1342 89.7635L65.0411 91.332L65.5666 90.4233C65.6072 90.353 65.6657 90.2946 65.7362 90.254C65.8066 90.2134 65.8865 90.192 65.9678 90.192C66.0492 90.192 66.1291 90.2134 66.1995 90.254C66.27 90.2946 66.3285 90.353 66.3691 90.4233L67.3919 92.1922C67.4326 92.2625 67.454 92.3423 67.454 92.4235C67.454 92.5047 67.4326 92.5845 67.3919 92.6548C67.3512 92.7252 67.2927 92.7836 67.2223 92.8242C67.1518 92.8648 67.0719 92.8861 66.9906 92.8861H66.9906ZM66.9906 92.4235L65.9678 90.6546L65.2418 91.9103C65.2215 91.9455 65.1922 91.9747 65.157 91.995C65.1218 92.0153 65.0818 92.026 65.0412 92.026C65.0005 92.026 64.9605 92.0153 64.9253 91.995C64.8901 91.9747 64.8608 91.9455 64.8405 91.9103L63.733 89.9948L62.3286 92.4235H66.9906Z" fill="#CCCCCC"/>
<path d="M67.3237 89.6477C67.5796 89.6477 67.787 89.4406 67.787 89.1851C67.787 88.9296 67.5796 88.7225 67.3237 88.7225C67.0678 88.7225 66.8604 88.9296 66.8604 89.1851C66.8604 89.4406 67.0678 89.6477 67.3237 89.6477Z" fill="#CCCCCC"/>
<path d="M154.156 71.4659H83.7308C82.7174 71.4648 81.7458 71.0623 81.0292 70.3469C80.3126 69.6314 79.9095 68.6613 79.9084 67.6495V52.6148C79.9095 51.603 80.3126 50.6329 81.0292 49.9174C81.7458 49.2019 82.7174 48.7995 83.7308 48.7983H154.156C155.17 48.7995 156.141 49.202 156.858 49.9174C157.575 50.6329 157.978 51.603 157.979 52.6148V67.6495C157.978 68.6613 157.575 69.6314 156.858 70.3468C156.141 71.0623 155.17 71.4648 154.156 71.4659Z" fill="white"/>
<path d="M154.156 71.5816H83.7308C82.6867 71.5805 81.6856 71.1658 80.9473 70.4287C80.209 69.6915 79.7937 68.692 79.7925 67.6495V52.6149C79.7937 51.5724 80.209 50.5729 80.9473 49.8357C81.6856 49.0986 82.6867 48.6839 83.7308 48.6827H154.156C155.201 48.6839 156.202 49.0986 156.94 49.8357C157.678 50.5729 158.094 51.5724 158.095 52.6149V67.6495C158.094 68.692 157.678 69.6915 156.94 70.4287C156.202 71.1658 155.201 71.5805 154.156 71.5816ZM83.7308 49.1453C82.8095 49.1464 81.9262 49.5123 81.2748 50.1627C80.6233 50.8131 80.2569 51.695 80.2558 52.6149V67.6495C80.2569 68.5694 80.6233 69.4513 81.2748 70.1017C81.9262 70.7521 82.8095 71.118 83.7308 71.119H154.156C155.078 71.118 155.961 70.7521 156.612 70.1017C157.264 69.4513 157.63 68.5694 157.631 67.6495V52.6149C157.63 51.695 157.264 50.8131 156.612 50.1627C155.961 49.5123 155.078 49.1464 154.156 49.1453H83.7308Z" fill="#3F3D56"/>
<path d="M139.938 30.5116C139.753 30.2114 139.508 29.952 139.219 29.7492C138.931 29.5464 138.604 29.4044 138.258 29.332C138.131 29.3054 138.003 29.2892 137.874 29.2834L120.223 13.5271C119.876 13.1713 119.414 12.9507 118.919 12.9049C118.821 12.8937 118.723 12.8906 118.625 12.8957C118.217 12.9141 117.824 13.0507 117.494 13.2886C117.163 13.5265 116.909 13.8555 116.762 14.2354C116.616 14.6152 116.583 15.0295 116.669 15.4274C116.754 15.8254 116.954 16.1898 117.244 16.4762L124.002 22.3582L135.098 32.0151C135.107 32.197 135.134 32.3775 135.179 32.554C135.312 33.0654 135.597 33.5244 135.998 33.8702C136.398 34.2159 136.893 34.4321 137.419 34.49C137.899 34.546 138.385 34.4658 138.821 34.2587C139.167 34.0972 139.474 33.8629 139.72 33.5717C139.745 33.5417 139.769 33.5139 139.792 33.4815C140.116 33.0601 140.303 32.55 140.329 32.0193C140.355 31.4887 140.219 30.9627 139.938 30.5116H139.938Z" fill="#FFB8B8"/>
<path d="M109.747 45.6966L109.583 39.0212L109.444 33.4816L109.349 29.6049L109.161 22.0483C109.124 21.6437 108.97 21.2587 108.717 20.9402C108.464 20.6217 108.124 20.3835 107.739 20.2547C107.353 20.126 106.937 20.1122 106.544 20.215C106.15 20.3179 105.795 20.5329 105.522 20.834C105.457 20.9027 105.399 20.977 105.348 21.056C105.063 21.4639 104.934 21.9607 104.987 22.4554L105.399 33.4816L105.605 39.0212L105.869 46.0875C105.793 46.1913 105.724 46.3003 105.663 46.4137C105.498 46.7256 105.399 47.0676 105.371 47.4191C105.342 47.7706 105.386 48.1242 105.499 48.4584C105.616 48.8088 105.807 49.1304 106.058 49.4019C106.309 49.6734 106.615 49.8887 106.956 50.0335C107.296 50.1784 107.664 50.2496 108.034 50.2425C108.404 50.2353 108.769 50.1499 109.103 49.9919C109.492 49.8084 109.829 49.5321 110.086 49.1875C110.342 48.8428 110.51 48.4404 110.573 48.0159C110.637 47.5913 110.595 47.1576 110.451 46.7531C110.307 46.3486 110.065 45.9857 109.747 45.6966H109.747Z" fill="#FFB8B8"/>
<path d="M125.639 26.7876L124.002 22.3582L121.351 15.1832C121.16 14.6611 120.854 14.1888 120.455 13.8012C120.055 13.4136 119.574 13.1207 119.046 12.9442C119.005 12.9303 118.961 12.9164 118.919 12.9049C118.407 12.7499 117.869 12.7073 117.339 12.7799C116.81 12.8526 116.302 13.0388 115.852 13.3258L106.926 18.9789C106.108 19.4954 105.524 20.309 105.296 21.2477C105.068 22.1864 105.215 23.1768 105.705 24.0097C106.821 25.9368 108.037 27.8044 109.349 29.6049C110.389 31.0181 112.326 31.1685 112.662 33.4815H119.243L125.906 27.5093L125.639 26.7876Z" fill="#CCCCCC"/>
<path d="M23.4361 80.9219C26.4008 80.9219 28.8042 78.5223 28.8042 75.5623C28.8042 72.6022 26.4008 70.2026 23.4361 70.2026C20.4715 70.2026 18.0681 72.6022 18.0681 75.5623C18.0681 78.5223 20.4715 80.9219 23.4361 80.9219Z" fill="#A0616A"/>
<path d="M36.6147 71.873C36.6676 71.915 36.7189 71.9596 36.7685 72.0067C37.0151 72.2386 37.2098 72.52 37.34 72.8323C37.4701 73.1446 37.5326 73.4809 37.5235 73.819C37.5143 74.1571 37.4338 74.4895 37.287 74.7944C37.1403 75.0993 36.9306 75.3697 36.6719 75.5881C36.6116 75.6386 36.5486 75.686 36.4834 75.73L36.8467 87.9762C36.857 88.3771 36.7376 88.7707 36.5062 89.0985C36.2748 89.4263 35.9437 89.6708 35.5621 89.7959L35.54 89.8006L25.5811 90.8595C25.3103 90.8883 25.0365 90.8632 24.7755 90.7857C24.5145 90.7082 24.2715 90.5799 24.0605 90.4081C23.8494 90.2363 23.6746 90.0245 23.546 89.7849C23.4174 89.5453 23.3376 89.2826 23.3113 89.012C23.2849 88.7414 23.3125 88.4683 23.3925 88.2085C23.4724 87.9486 23.6031 87.7071 23.7771 87.4979C23.951 87.2888 24.1647 87.1161 24.4059 86.9899C24.647 86.8637 24.9109 86.7864 25.1821 86.7625L32.2812 86.1383L33.509 75.5328C33.4287 75.4619 33.3534 75.3854 33.2839 75.3039C32.899 74.849 32.6971 74.2675 32.7174 73.6724C32.7378 73.0772 32.9789 72.5108 33.3941 72.0833C33.8092 71.6557 34.3687 71.3974 34.9638 71.3585C35.559 71.3197 36.1474 71.503 36.6147 71.873H36.6147Z" fill="#A0616A"/>
<path d="M32.2772 150.155H34.9568L36.2314 139.836H32.2767L32.2772 150.155Z" fill="#A0616A"/>
<path d="M31.5938 149.282L36.8706 149.282H36.8709C37.3125 149.282 37.7498 149.368 38.1578 149.537C38.5658 149.706 38.9365 149.953 39.2488 150.265C39.561 150.577 39.8087 150.947 39.9777 151.354C40.1467 151.762 40.2337 152.198 40.2337 152.639V152.748L31.594 152.749L31.5938 149.282Z" fill="#2F2E41"/>
<path d="M5.64471 146.456L7.94698 147.825L14.33 139.61L10.932 137.59L5.64471 146.456Z" fill="#A0616A"/>
<path d="M5.505 145.357L10.039 148.052L10.0392 148.052C10.4187 148.278 10.7499 148.576 11.014 148.929C11.2781 149.282 11.4699 149.684 11.5784 150.112C11.687 150.539 11.7101 150.984 11.6466 151.42C11.5831 151.856 11.4341 152.276 11.2081 152.655L11.1522 152.749L3.7287 148.335L5.505 145.357Z" fill="#2F2E41"/>
<path d="M35.589 146.511H32.5886C32.3456 146.511 32.1112 146.421 31.9305 146.259C31.7499 146.097 31.6359 145.874 31.6106 145.632L28.5858 117.243C28.5781 117.171 28.5472 117.104 28.4976 117.052C28.4481 117 28.3828 116.966 28.3117 116.954C28.2406 116.943 28.1678 116.955 28.1044 116.989C28.041 117.023 27.9906 117.077 27.9609 117.143L22.504 129.207L12.8428 144.936C12.7178 145.138 12.5242 145.288 12.2975 145.359C12.0708 145.429 11.8261 145.416 11.6083 145.322L7.74874 143.626C7.62113 143.57 7.50691 143.488 7.41367 143.384C7.32043 143.28 7.25029 143.158 7.20791 143.026C7.16553 142.893 7.15187 142.753 7.16783 142.615C7.1838 142.476 7.22903 142.343 7.30052 142.224L16.1818 127.376L18.9056 114.866C18.049 109.441 21.7215 101.375 21.7587 101.294L21.7769 101.254L31.8931 97.3066L31.9438 97.3686C35.9333 110.44 38.3644 124.508 36.5694 145.611C36.5472 145.856 36.4346 146.083 36.2533 146.25C36.072 146.416 35.8352 146.509 35.589 146.511Z" fill="#2F2E41"/>
<path d="M21.3694 102.576L21.3223 102.477C21.2998 102.43 19.0503 97.6933 17.3163 92.6306C16.9831 91.6515 16.8571 90.6141 16.9464 89.5839C17.0357 88.5537 17.3382 87.5533 17.8349 86.646C18.3381 85.7293 19.0265 84.9269 19.8565 84.2897C20.6864 83.6524 21.6399 83.1943 22.6565 82.9442C24.4213 82.5218 26.2793 82.7465 27.8921 83.5774C29.5048 84.4082 30.765 85.7899 31.4429 87.4707C32.8184 90.9048 32.38 94.5704 31.9675 97.453L31.9593 97.5108L31.9067 97.5359L21.3694 102.576Z" fill="#3F3D56"/>
<path d="M29.9447 72.5348H21.4209V68.8251C23.2918 68.083 25.1226 67.4519 26.2292 68.8251C27.2146 68.8251 28.1597 69.2159 28.8565 69.9116C29.5533 70.6073 29.9447 71.5509 29.9447 72.5348V72.5348Z" fill="#2F2E41"/>
<path d="M20.949 68.1704C15.8533 68.1704 14.427 74.5477 14.427 78.1454C14.427 80.1518 15.3359 80.8695 16.764 81.1123L17.2683 78.4266L18.4496 81.2279C18.8507 81.2299 19.2722 81.2221 19.7091 81.214L20.1096 80.3906L21.0027 81.1992C24.5798 81.2046 27.4709 81.7252 27.4709 78.1454C27.4709 74.5477 26.22 68.1704 20.949 68.1704Z" fill="#2F2E41"/>
<path d="M44.711 153H0.231663C0.170222 153 0.111298 152.976 0.0678524 152.932C0.0244071 152.889 0 152.83 0 152.769C0 152.707 0.0244071 152.648 0.0678524 152.605C0.111298 152.562 0.170222 152.537 0.231663 152.537H44.711C44.7725 152.537 44.8314 152.562 44.8748 152.605C44.9183 152.648 44.9427 152.707 44.9427 152.769C44.9427 152.83 44.9183 152.889 44.8748 152.932C44.8314 152.976 44.7725 153 44.711 153Z" fill="#CCCCCC"/>
<path d="M45.5474 76.9016H35.5859C35.0024 76.901 34.443 76.6693 34.0304 76.2573C33.6178 75.8454 33.3857 75.2868 33.3851 74.7043V64.7583C33.3857 64.1757 33.6178 63.6172 34.0304 63.2052C34.443 62.7933 35.0024 62.5616 35.5859 62.5609H45.5474C46.1309 62.5616 46.6903 62.7933 47.1028 63.2052C47.5154 63.6172 47.7475 64.1757 47.7482 64.7583V74.7043C47.7475 75.2868 47.5154 75.8454 47.1028 76.2573C46.6903 76.6693 46.1309 76.901 45.5474 76.9016Z" fill="white"/>
<path d="M45.5474 76.9016H35.5859C35.0024 76.901 34.443 76.6693 34.0304 76.2573C33.6178 75.8454 33.3857 75.2868 33.3851 74.7043V64.7583C33.3857 64.1757 33.6178 63.6172 34.0304 63.2052C34.443 62.7933 35.0024 62.5616 35.5859 62.5609H45.5474C46.1309 62.5616 46.6903 62.7933 47.1028 63.2052C47.5154 63.6172 47.7475 64.1757 47.7482 64.7583V74.7043C47.7475 75.2868 47.5154 75.8454 47.1028 76.2573C46.6903 76.6693 46.1309 76.901 45.5474 76.9016ZM35.5859 63.0235C35.1252 63.024 34.6836 63.207 34.3578 63.5322C34.0321 63.8574 33.8489 64.2984 33.8484 64.7583V74.7043C33.8489 75.1642 34.0321 75.6052 34.3578 75.9304C34.6836 76.2556 35.1252 76.4385 35.5859 76.439H45.5474C46.008 76.4385 46.4497 76.2556 46.7754 75.9304C47.1011 75.6052 47.2843 75.1642 47.2849 74.7043V64.7583C47.2843 64.2984 47.1011 63.8574 46.7754 63.5322C46.4497 63.207 46.008 63.024 45.5474 63.0235H35.5859Z" fill="#3F3D56"/>
<path d="M43.8099 72.8538H37.3233C37.1391 72.8536 36.9624 72.7804 36.8321 72.6503C36.7018 72.5203 36.6285 72.3439 36.6283 72.1599V67.3026C36.6285 67.1186 36.7018 66.9422 36.8321 66.8121C36.9624 66.682 37.1391 66.6088 37.3233 66.6086H39.1494C39.2681 66.6082 39.385 66.6384 39.4887 66.6962C39.5924 66.754 39.6794 66.8376 39.7413 66.9388L40.2506 67.7652H43.8099C43.9942 67.7654 44.1708 67.8385 44.3011 67.9686C44.4314 68.0987 44.5047 68.2751 44.5049 68.4591V72.1599C44.5047 72.3439 44.4314 72.5203 44.3011 72.6503C44.1708 72.7804 43.9942 72.8536 43.8099 72.8538Z" fill="#B3013D"/>
<path d="M43.5989 75.3078C43.6313 75.367 43.6613 75.428 43.6887 75.4906C43.8259 75.7999 43.896 76.1346 43.8945 76.4729C43.893 76.8112 43.82 77.1453 43.6802 77.4534C43.5404 77.7615 43.3369 78.0366 43.0832 78.2607C42.8294 78.4849 42.5311 78.6529 42.2078 78.7539C42.1325 78.7771 42.0561 78.7964 41.9789 78.8116L37.5542 90.2391C37.408 90.6126 37.145 90.929 36.8043 91.1415C36.4636 91.3539 36.0634 91.4511 35.6631 91.4185L35.6409 91.4143L26.0508 88.5317C25.79 88.4534 25.5474 88.3242 25.337 88.1517C25.1265 87.9791 24.9524 87.7667 24.8246 87.5266C24.6969 87.2865 24.618 87.0235 24.5926 86.7528C24.5672 86.4822 24.5958 86.2091 24.6767 85.9495C24.7576 85.6899 24.8891 85.4489 25.0638 85.2403C25.2386 85.0318 25.4529 84.8599 25.6945 84.7345C25.9362 84.6091 26.2003 84.5328 26.4716 84.5099C26.7429 84.4871 27.0161 84.5181 27.2754 84.6012L34.0609 86.7763L39.3142 77.4776C39.2677 77.381 39.2282 77.2814 39.1957 77.1793C39.0178 76.611 39.0577 75.9969 39.3078 75.4562C39.5578 74.9156 40.0002 74.4871 40.549 74.2539C41.0977 74.0206 41.7137 73.9993 42.2773 74.1941C42.841 74.3888 43.312 74.7858 43.5989 75.3078H43.5989Z" fill="#A0616A"/>
</g>
<defs>
<clipPath id="clip0_56_952">
<rect width="203" height="153" fill="white"/>
</clipPath>
</defs>
</svg>
