<svg width="216" height="154" viewBox="0 0 216 154" fill="none" xmlns="http://www.w3.org/2000/svg">
<g clip-path="url(#clip0_56_894)">
<path d="M9.98312 31.3553C11.884 31.3553 13.4249 29.8166 13.4249 27.9185C13.4249 26.0204 11.884 24.4817 9.98312 24.4817C8.08225 24.4817 6.54129 26.0204 6.54129 27.9185C6.54129 29.8166 8.08225 31.3553 9.98312 31.3553Z" fill="#E6E6E6"/>
<path d="M20.3086 31.3553C22.2095 31.3553 23.7504 29.8166 23.7504 27.9185C23.7504 26.0204 22.2095 24.4817 20.3086 24.4817C18.4077 24.4817 16.8668 26.0204 16.8668 27.9185C16.8668 29.8166 18.4077 31.3553 20.3086 31.3553Z" fill="#E6E6E6"/>
<path d="M30.6341 31.3553C32.535 31.3553 34.0759 29.8166 34.0759 27.9185C34.0759 26.0204 32.535 24.4817 30.6341 24.4817C28.7332 24.4817 27.1923 26.0204 27.1923 27.9185C27.1923 29.8166 28.7332 31.3553 30.6341 31.3553Z" fill="#E6E6E6"/>
<path d="M40.9596 31.3553C42.8604 31.3553 44.4014 29.8166 44.4014 27.9185C44.4014 26.0204 42.8604 24.4817 40.9596 24.4817C39.0587 24.4817 37.5177 26.0204 37.5177 27.9185C37.5177 29.8166 39.0587 31.3553 40.9596 31.3553Z" fill="#E6E6E6"/>
<path d="M51.2851 31.3553C53.1859 31.3553 54.7269 29.8166 54.7269 27.9185C54.7269 26.0204 53.1859 24.4817 51.2851 24.4817C49.3842 24.4817 47.8432 26.0204 47.8432 27.9185C47.8432 29.8166 49.3842 31.3553 51.2851 31.3553Z" fill="#E6E6E6"/>
<path d="M61.6105 31.3553C63.5114 31.3553 65.0524 29.8166 65.0524 27.9185C65.0524 26.0204 63.5114 24.4817 61.6105 24.4817C59.7097 24.4817 58.1687 26.0204 58.1687 27.9185C58.1687 29.8166 59.7097 31.3553 61.6105 31.3553Z" fill="#E6E6E6"/>
<path d="M71.936 31.3553C73.8369 31.3553 75.3779 29.8166 75.3779 27.9185C75.3779 26.0204 73.8369 24.4817 71.936 24.4817C70.0352 24.4817 68.4942 26.0204 68.4942 27.9185C68.4942 29.8166 70.0352 31.3553 71.936 31.3553Z" fill="#E6E6E6"/>
<path d="M79.8894 32.1037H2.02973C1.65839 32.1032 1.30239 31.9557 1.03981 31.6936C0.777231 31.4314 0.629526 31.0759 0.629089 30.7051V25.1319C0.629525 24.7611 0.777231 24.4056 1.03981 24.1434C1.30239 23.8812 1.65839 23.7337 2.02973 23.7333H79.8894C80.2607 23.7337 80.6168 23.8812 80.8793 24.1434C81.1419 24.4056 81.2896 24.7611 81.2901 25.1319V30.7051C81.2896 31.0759 81.1419 31.4314 80.8793 31.6936C80.6168 31.9557 80.2607 32.1032 79.8894 32.1037ZM2.02973 24.2927C1.80692 24.293 1.59331 24.3815 1.43576 24.5388C1.27821 24.6961 1.18959 24.9094 1.18935 25.1319V30.7051C1.18959 30.9276 1.27821 31.1409 1.43576 31.2982C1.59331 31.4555 1.80692 31.544 2.02973 31.5442H79.8894C80.1122 31.544 80.3258 31.4555 80.4834 31.2982C80.6409 31.1409 80.7296 30.9276 80.7298 30.7051V25.1319C80.7296 24.9094 80.6409 24.6961 80.4834 24.5388C80.3258 24.3814 80.1122 24.293 79.8894 24.2927L2.02973 24.2927Z" fill="#E6E6E6"/>
<path d="M18.6922 0.803576C18.9056 0.80382 19.1101 0.888561 19.261 1.03921C19.4119 1.18985 19.4967 1.3941 19.497 1.60714V19.0205C19.4967 19.2335 19.4119 19.4378 19.261 19.5884C19.1101 19.7391 18.9056 19.8238 18.6922 19.8241H1.60955C1.39619 19.8238 1.19164 19.7391 1.04077 19.5884C0.889909 19.4378 0.805044 19.2335 0.8048 19.0205V1.60716C0.805044 1.39411 0.889909 1.18986 1.04077 1.03922C1.19164 0.888572 1.39619 0.803831 1.60955 0.803588H18.6922M18.6922 1.1542e-05H1.60955C1.18268 1.1542e-05 0.773291 0.169336 0.471449 0.470736C0.169607 0.772136 3.05176e-05 1.18092 3.05176e-05 1.60717V19.0205C3.05176e-05 19.4467 0.169607 19.8555 0.471449 20.1569C0.773291 20.4583 1.18268 20.6276 1.60955 20.6276H18.6922C19.1191 20.6276 19.5285 20.4583 19.8303 20.1569C20.1322 19.8555 20.3017 19.4467 20.3017 19.0205V1.60716C20.3017 1.18091 20.1322 0.772125 19.8303 0.470724C19.5285 0.169324 19.1191 6.68711e-07 18.6922 0V1.1542e-05Z" fill="#E6E6E6"/>
<path d="M16.0277 5.38084H4.63022C4.57717 5.38117 4.52458 5.37102 4.47548 5.35097C4.42638 5.33093 4.38173 5.30138 4.3441 5.26404C4.30648 5.2267 4.27661 5.1823 4.25624 5.13339C4.23586 5.08448 4.22537 5.03203 4.22537 4.97906C4.22537 4.92609 4.23586 4.87364 4.25624 4.82473C4.27661 4.77583 4.30648 4.73142 4.3441 4.69408C4.38173 4.65674 4.42638 4.6272 4.47548 4.60715C4.52458 4.58711 4.57717 4.57695 4.63022 4.57728H16.0277C16.0807 4.57695 16.1333 4.58711 16.1824 4.60715C16.2315 4.6272 16.2761 4.65674 16.3138 4.69408C16.3514 4.73142 16.3813 4.77583 16.4016 4.82473C16.422 4.87364 16.4325 4.92609 16.4325 4.97906C16.4325 5.03203 16.422 5.08448 16.4016 5.13339C16.3813 5.1823 16.3514 5.2267 16.3138 5.26404C16.2761 5.30138 16.2315 5.33093 16.1824 5.35097C16.1333 5.37102 16.0807 5.38117 16.0277 5.38084Z" fill="#B3013D"/>
<path d="M16.0277 8.22606H4.63022C4.57717 8.22638 4.52458 8.21623 4.47548 8.19618C4.42638 8.17614 4.38173 8.14659 4.3441 8.10925C4.30648 8.07191 4.27661 8.02751 4.25624 7.9786C4.23586 7.92969 4.22537 7.87724 4.22537 7.82427C4.22537 7.7713 4.23586 7.71885 4.25624 7.66995C4.27661 7.62104 4.30648 7.57664 4.3441 7.5393C4.38173 7.50196 4.42638 7.47241 4.47548 7.45237C4.52458 7.43232 4.57717 7.42217 4.63022 7.42249H16.0277C16.0807 7.42217 16.1333 7.43232 16.1824 7.45237C16.2315 7.47241 16.2761 7.50196 16.3138 7.5393C16.3514 7.57664 16.3813 7.62104 16.4016 7.66995C16.422 7.71885 16.4325 7.7713 16.4325 7.82427C16.4325 7.87724 16.422 7.92969 16.4016 7.9786C16.3813 8.02751 16.3514 8.07191 16.3138 8.10925C16.2761 8.14659 16.2315 8.17614 16.1824 8.19618C16.1333 8.21623 16.0807 8.22638 16.0277 8.22606Z" fill="#B3013D"/>
<path d="M16.0277 11.0712H4.63022C4.57717 11.0715 4.52458 11.0613 4.47548 11.0413C4.42638 11.0212 4.38173 10.9917 4.3441 10.9543C4.30648 10.917 4.27661 10.8726 4.25624 10.8237C4.23586 10.7748 4.22537 10.7223 4.22537 10.6694C4.22537 10.6164 4.23586 10.5639 4.25624 10.515C4.27661 10.4661 4.30648 10.4217 4.3441 10.3844C4.38173 10.347 4.42638 10.3175 4.47548 10.2975C4.52458 10.2774 4.57717 10.2673 4.63022 10.2676H16.0277C16.0807 10.2673 16.1333 10.2774 16.1824 10.2975C16.2315 10.3175 16.2761 10.347 16.3138 10.3844C16.3514 10.4217 16.3813 10.4661 16.4016 10.515C16.422 10.5639 16.4325 10.6164 16.4325 10.6694C16.4325 10.7223 16.422 10.7748 16.4016 10.8237C16.3813 10.8726 16.3514 10.917 16.3138 10.9543C16.2761 10.9917 16.2315 11.0212 16.1824 11.0413C16.1333 11.0613 16.0807 11.0715 16.0277 11.0712Z" fill="#B3013D"/>
<path d="M16.0277 13.9165H4.63022C4.57717 13.9168 4.52458 13.9067 4.47548 13.8866C4.42638 13.8666 4.38173 13.837 4.3441 13.7997C4.30648 13.7623 4.27661 13.7179 4.25624 13.669C4.23586 13.6201 4.22537 13.5677 4.22537 13.5147C4.22537 13.4617 4.23586 13.4093 4.25624 13.3604C4.27661 13.3115 4.30648 13.2671 4.3441 13.2297C4.38173 13.1924 4.42638 13.1628 4.47548 13.1428C4.52458 13.1227 4.57717 13.1126 4.63022 13.1129H16.0277C16.0807 13.1126 16.1333 13.1227 16.1824 13.1428C16.2315 13.1628 16.2761 13.1924 16.3138 13.2297C16.3514 13.2671 16.3813 13.3115 16.4016 13.3604C16.422 13.4093 16.4325 13.4617 16.4325 13.5147C16.4325 13.5677 16.422 13.6201 16.4016 13.669C16.3813 13.7179 16.3514 13.7623 16.3138 13.7997C16.2761 13.837 16.2315 13.8666 16.1824 13.8866C16.1333 13.9067 16.0807 13.9168 16.0277 13.9165Z" fill="#B3013D"/>
<path d="M16.0277 16.7617H4.63022C4.5235 16.7617 4.42116 16.7194 4.34569 16.644C4.27023 16.5687 4.22784 16.4665 4.22784 16.3599C4.22784 16.2534 4.27023 16.1512 4.34569 16.0758C4.42116 16.0005 4.5235 15.9581 4.63022 15.9581H16.0277C16.1344 15.9581 16.2367 16.0005 16.3122 16.0758C16.3876 16.1512 16.43 16.2534 16.43 16.3599C16.43 16.4665 16.3876 16.5687 16.3122 16.644C16.2367 16.7194 16.1344 16.7617 16.0277 16.7617Z" fill="#B3013D"/>
<path d="M77.037 0.803576C77.2504 0.80382 77.4549 0.888561 77.6058 1.03921C77.7566 1.18985 77.8415 1.3941 77.8417 1.60714V19.0205C77.8415 19.2335 77.7566 19.4378 77.6058 19.5884C77.4549 19.7391 77.2504 19.8238 77.037 19.8241H59.9543C59.741 19.8238 59.5364 19.7391 59.3856 19.5884C59.2347 19.4378 59.1498 19.2335 59.1496 19.0205V1.60716C59.1498 1.39411 59.2347 1.18986 59.3856 1.03922C59.5364 0.888572 59.741 0.803831 59.9543 0.803588H77.037M77.037 1.1542e-05H59.9543C59.5275 1.1542e-05 59.1181 0.169336 58.8162 0.470736C58.5144 0.772136 58.3448 1.18092 58.3448 1.60717V19.0205C58.3448 19.4467 58.5144 19.8555 58.8162 20.1569C59.1181 20.4583 59.5275 20.6276 59.9543 20.6276H77.037C77.4639 20.6276 77.8733 20.4583 78.1751 20.1569C78.4769 19.8555 78.6465 19.4467 78.6465 19.0205V1.60716C78.6465 1.18091 78.4769 0.772125 78.1751 0.470724C77.8733 0.169324 77.4639 0 77.037 0V1.1542e-05Z" fill="#E6E6E6"/>
<path d="M74.3725 5.38084H62.975C62.922 5.38117 62.8694 5.37102 62.8203 5.35097C62.7712 5.33093 62.7265 5.30138 62.6889 5.26404C62.6513 5.2267 62.6214 5.1823 62.6011 5.13339C62.5807 5.08448 62.5702 5.03203 62.5702 4.97906C62.5702 4.92609 62.5807 4.87364 62.6011 4.82473C62.6214 4.77583 62.6513 4.73142 62.6889 4.69408C62.7265 4.65674 62.7712 4.6272 62.8203 4.60715C62.8694 4.58711 62.922 4.57695 62.975 4.57728H74.3725C74.4788 4.57793 74.5805 4.62055 74.6554 4.69583C74.7303 4.7711 74.7724 4.87293 74.7724 4.97906C74.7724 5.0852 74.7303 5.18702 74.6554 5.26229C74.5805 5.33757 74.4788 5.38019 74.3725 5.38084H74.3725Z" fill="#B3013D"/>
<path d="M74.3725 8.22606H62.975C62.922 8.22638 62.8694 8.21623 62.8203 8.19618C62.7712 8.17614 62.7265 8.14659 62.6889 8.10925C62.6513 8.07191 62.6214 8.02751 62.6011 7.9786C62.5807 7.92969 62.5702 7.87724 62.5702 7.82427C62.5702 7.7713 62.5807 7.71885 62.6011 7.66995C62.6214 7.62104 62.6513 7.57664 62.6889 7.5393C62.7265 7.50196 62.7712 7.47241 62.8203 7.45237C62.8694 7.43232 62.922 7.42217 62.975 7.42249H74.3725C74.4788 7.42314 74.5805 7.46576 74.6554 7.54104C74.7303 7.61632 74.7724 7.71814 74.7724 7.82427C74.7724 7.93041 74.7303 8.03223 74.6554 8.10751C74.5805 8.18279 74.4788 8.22541 74.3725 8.22606H74.3725Z" fill="#B3013D"/>
<path d="M74.3725 11.0712H62.975C62.922 11.0715 62.8694 11.0613 62.8203 11.0413C62.7712 11.0212 62.7265 10.9917 62.6889 10.9543C62.6513 10.917 62.6214 10.8726 62.6011 10.8237C62.5807 10.7748 62.5702 10.7223 62.5702 10.6694C62.5702 10.6164 62.5807 10.5639 62.6011 10.515C62.6214 10.4661 62.6513 10.4217 62.6889 10.3844C62.7265 10.347 62.7712 10.3175 62.8203 10.2975C62.8694 10.2774 62.922 10.2673 62.975 10.2676H74.3725C74.4788 10.2682 74.5805 10.3109 74.6554 10.3861C74.7303 10.4614 74.7724 10.5632 74.7724 10.6694C74.7724 10.7755 74.7303 10.8773 74.6554 10.9526C74.5805 11.0279 74.4788 11.0705 74.3725 11.0712H74.3725Z" fill="#B3013D"/>
<path d="M74.3725 13.9165H62.975C62.922 13.9168 62.8694 13.9067 62.8203 13.8866C62.7712 13.8666 62.7265 13.837 62.6889 13.7997C62.6513 13.7623 62.6214 13.7179 62.6011 13.669C62.5807 13.6201 62.5702 13.5677 62.5702 13.5147C62.5702 13.4617 62.5807 13.4093 62.6011 13.3604C62.6214 13.3115 62.6513 13.2671 62.6889 13.2297C62.7265 13.1924 62.7712 13.1628 62.8203 13.1428C62.8694 13.1227 62.922 13.1126 62.975 13.1129H74.3725C74.4788 13.1136 74.5805 13.1562 74.6554 13.2315C74.7303 13.3067 74.7724 13.4086 74.7724 13.5147C74.7724 13.6208 74.7303 13.7227 74.6554 13.7979C74.5805 13.8732 74.4788 13.9158 74.3725 13.9165H74.3725Z" fill="#B3013D"/>
<path d="M74.3725 16.7617H62.975C62.8683 16.7617 62.766 16.7194 62.6905 16.644C62.6151 16.5687 62.5727 16.4665 62.5727 16.3599C62.5727 16.2534 62.6151 16.1512 62.6905 16.0758C62.766 16.0005 62.8683 15.9581 62.975 15.9581H74.3725C74.4792 15.9581 74.5815 16.0005 74.657 16.0758C74.7325 16.1512 74.7749 16.2534 74.7749 16.3599C74.7749 16.4665 74.7325 16.5687 74.657 16.644C74.5815 16.7194 74.4792 16.7617 74.3725 16.7617H74.3725Z" fill="#B3013D"/>
<path d="M135.098 34.2854C135.312 34.2856 135.516 34.3704 135.667 34.521C135.818 34.6717 135.903 34.8759 135.903 35.089V52.5023C135.903 52.7153 135.818 52.9196 135.667 53.0702C135.516 53.2209 135.312 53.3056 135.098 53.3058H118.016C117.802 53.3056 117.598 53.2209 117.447 53.0702C117.296 52.9196 117.211 52.7153 117.211 52.5023V35.089C117.211 34.8759 117.296 34.6717 117.447 34.521C117.598 34.3704 117.802 34.2856 118.016 34.2854H135.098M135.098 33.4818H118.016C117.589 33.4818 117.179 33.6512 116.878 33.9526C116.576 34.254 116.406 34.6628 116.406 35.089V52.5023C116.406 52.9286 116.576 53.3374 116.878 53.6388C117.179 53.9402 117.589 54.1095 118.016 54.1095H135.098C135.525 54.1095 135.935 53.9402 136.236 53.6388C136.538 53.3374 136.708 52.9286 136.708 52.5023V35.089C136.708 34.6627 136.538 34.2539 136.236 33.9525C135.935 33.6511 135.525 33.4818 135.098 33.4818V33.4818Z" fill="#B3013D"/>
<path d="M132.434 38.8627H121.036C120.983 38.863 120.931 38.8528 120.882 38.8328C120.833 38.8127 120.788 38.7832 120.75 38.7459C120.713 38.7085 120.683 38.6641 120.662 38.6152C120.642 38.5663 120.632 38.5138 120.632 38.4609C120.632 38.4079 120.642 38.3555 120.662 38.3065C120.683 38.2576 120.713 38.2132 120.75 38.1759C120.788 38.1386 120.833 38.109 120.882 38.089C120.931 38.0689 120.983 38.0588 121.036 38.0591H132.434C132.54 38.0597 132.642 38.1024 132.717 38.1776C132.792 38.2529 132.834 38.3547 132.834 38.4609C132.834 38.567 132.792 38.6688 132.717 38.7441C132.642 38.8194 132.54 38.862 132.434 38.8627Z" fill="#B3013D"/>
<path d="M132.434 41.7079H121.036C120.93 41.7079 120.827 41.6655 120.752 41.5902C120.676 41.5148 120.634 41.4127 120.634 41.3061C120.634 41.1995 120.676 41.0973 120.752 41.022C120.827 40.9466 120.93 40.9043 121.036 40.9043H132.434C132.541 40.9043 132.643 40.9466 132.718 41.022C132.794 41.0973 132.836 41.1995 132.836 41.3061C132.836 41.4127 132.794 41.5148 132.718 41.5902C132.643 41.6655 132.541 41.7079 132.434 41.7079Z" fill="#B3013D"/>
<path d="M132.434 44.553H121.036C120.983 44.5532 120.931 44.543 120.882 44.523C120.833 44.5029 120.788 44.4733 120.751 44.436C120.713 44.3987 120.683 44.3543 120.663 44.3054C120.643 44.2565 120.632 44.2041 120.632 44.1512C120.632 44.0982 120.643 44.0458 120.663 43.997C120.683 43.9481 120.713 43.9037 120.751 43.8664C120.788 43.829 120.833 43.7995 120.882 43.7794C120.931 43.7593 120.983 43.7491 121.036 43.7494H132.434C132.54 43.75 132.642 43.7927 132.717 43.8679C132.792 43.9432 132.834 44.045 132.834 44.1512C132.834 44.2573 132.792 44.3591 132.717 44.4344C132.642 44.5097 132.54 44.5523 132.434 44.553Z" fill="#B3013D"/>
<path d="M132.434 47.3983H121.036C120.983 47.3986 120.931 47.3885 120.882 47.3684C120.833 47.3484 120.788 47.3188 120.75 47.2815C120.713 47.2441 120.683 47.1998 120.662 47.1508C120.642 47.1019 120.632 47.0495 120.632 46.9965C120.632 46.9435 120.642 46.8911 120.662 46.8422C120.683 46.7933 120.713 46.7489 120.75 46.7115C120.788 46.6742 120.833 46.6447 120.882 46.6246C120.931 46.6046 120.983 46.5944 121.036 46.5947H132.434C132.54 46.5954 132.642 46.638 132.717 46.7133C132.792 46.7886 132.834 46.8904 132.834 46.9965C132.834 47.1026 132.792 47.2045 132.717 47.2798C132.642 47.355 132.54 47.3976 132.434 47.3983Z" fill="#B3013D"/>
<path d="M132.434 50.2435H121.036C120.983 50.2438 120.931 50.2337 120.882 50.2136C120.833 50.1936 120.788 50.1641 120.75 50.1267C120.713 50.0894 120.683 50.045 120.662 49.9961C120.642 49.9471 120.632 49.8947 120.632 49.8417C120.632 49.7888 120.642 49.7363 120.662 49.6874C120.683 49.6385 120.713 49.5941 120.75 49.5568C120.788 49.5194 120.833 49.4899 120.882 49.4698C120.931 49.4498 120.983 49.4396 121.036 49.4399H132.434C132.54 49.4406 132.642 49.4832 132.717 49.5585C132.792 49.6338 132.834 49.7356 132.834 49.8417C132.834 49.9479 132.792 50.0497 132.717 50.125C132.642 50.2002 132.54 50.2429 132.434 50.2435Z" fill="#B3013D"/>
<path d="M48.0881 20.6276H30.5582C30.0841 20.6271 29.6296 20.4388 29.2944 20.104C28.9592 19.7693 28.7706 19.3155 28.7701 18.8421V6.31681C28.7706 5.84341 28.9591 5.38954 29.2943 5.05478C29.6296 4.72002 30.0841 4.53169 30.5582 4.53113H48.0881C48.5623 4.53165 49.0168 4.71995 49.3521 5.05472C49.6873 5.38949 49.8759 5.84338 49.8764 6.31681V18.8421C49.8759 19.3155 49.6873 19.7694 49.352 20.1041C49.0167 20.4388 48.5622 20.6271 48.0881 20.6276ZM30.5582 5.3347C30.2974 5.33503 30.0475 5.43861 29.8631 5.62273C29.6788 5.80684 29.5751 6.05646 29.5748 6.31681V18.8421C29.5751 19.1025 29.6788 19.352 29.8631 19.5361C30.0475 19.7202 30.2974 19.8238 30.5582 19.824H48.0881C48.3489 19.8238 48.5988 19.7202 48.7832 19.5361C48.9676 19.3521 49.0713 19.1025 49.0717 18.8421V6.31681C49.0714 6.05644 48.9676 5.80682 48.7832 5.62271C48.5989 5.43859 48.3489 5.33502 48.0881 5.3347H30.5582Z" fill="#E6E6E6"/>
<path d="M45.022 10.136H33.6245C33.5182 10.1353 33.4165 10.0927 33.3416 10.0174C33.2667 9.94215 33.2246 9.84032 33.2246 9.73419C33.2246 9.62805 33.2667 9.52623 33.3416 9.45095C33.4165 9.37567 33.5182 9.33306 33.6245 9.33241H45.022C45.075 9.33208 45.1276 9.34223 45.1767 9.36228C45.2258 9.38233 45.2705 9.41187 45.3081 9.44921C45.3457 9.48655 45.3756 9.53095 45.3959 9.57986C45.4163 9.62877 45.4268 9.68122 45.4268 9.73419C45.4268 9.78716 45.4163 9.83961 45.3959 9.88852C45.3756 9.93743 45.3457 9.98183 45.3081 10.0192C45.2705 10.0565 45.2258 10.0861 45.1767 10.1061C45.1276 10.1261 45.075 10.1363 45.022 10.136Z" fill="#B3013D"/>
<path d="M45.022 12.9813H33.6245C33.5182 12.9807 33.4165 12.938 33.3416 12.8628C33.2667 12.7875 33.2246 12.6857 33.2246 12.5795C33.2246 12.4734 33.2667 12.3716 33.3416 12.2963C33.4165 12.221 33.5182 12.1784 33.6245 12.1777H45.022C45.075 12.1774 45.1276 12.1876 45.1767 12.2076C45.2258 12.2277 45.2705 12.2572 45.3081 12.2945C45.3457 12.3319 45.3756 12.3763 45.3959 12.4252C45.4163 12.4741 45.4268 12.5266 45.4268 12.5795C45.4268 12.6325 45.4163 12.6849 45.3959 12.7339C45.3756 12.7828 45.3457 12.8272 45.3081 12.8645C45.2705 12.9018 45.2258 12.9314 45.1767 12.9514C45.1276 12.9715 45.075 12.9816 45.022 12.9813Z" fill="#B3013D"/>
<path d="M45.022 15.8264H33.6245C33.5182 15.8257 33.4165 15.7831 33.3416 15.7079C33.2667 15.6326 33.2246 15.5307 33.2246 15.4246C33.2246 15.3185 33.2667 15.2167 33.3416 15.1414C33.4165 15.0661 33.5182 15.0235 33.6245 15.0228H45.022C45.075 15.0225 45.1276 15.0327 45.1767 15.0527C45.2258 15.0728 45.2705 15.1023 45.3081 15.1396C45.3457 15.177 45.3756 15.2214 45.3959 15.2703C45.4163 15.3192 45.4268 15.3716 45.4268 15.4246C45.4268 15.4776 45.4163 15.53 45.3959 15.5789C45.3756 15.6279 45.3457 15.6723 45.3081 15.7096C45.2705 15.7469 45.2258 15.7765 45.1767 15.7965C45.1276 15.8166 45.075 15.8267 45.022 15.8264Z" fill="#B3013D"/>
<path d="M106.255 27.5683L89.4191 22.6929C88.964 22.5605 88.58 22.2533 88.3514 21.8386C88.1228 21.4238 88.0683 20.9355 88.1998 20.4807L91.6936 8.45108C91.8261 7.99655 92.1338 7.61308 92.5491 7.38479C92.9644 7.15651 93.4535 7.10205 93.909 7.23336L110.745 12.1087C111.2 12.2411 111.585 12.5484 111.813 12.9631C112.042 13.3779 112.096 13.8663 111.965 14.3211L108.471 26.3508C108.338 26.8053 108.031 27.1887 107.615 27.417C107.2 27.6452 106.711 27.6996 106.255 27.5683ZM93.6848 8.00513C93.4343 7.93293 93.1654 7.96289 92.937 8.08845C92.7086 8.21402 92.5393 8.42492 92.4665 8.67489L88.9727 20.7046C88.9004 20.9547 88.9304 21.2232 89.0561 21.4513C89.1818 21.6794 89.393 21.8483 89.6433 21.9211L106.48 26.7965C106.73 26.8687 106.999 26.8388 107.227 26.7133C107.456 26.5878 107.625 26.3769 107.698 26.127L111.192 14.0973C111.264 13.8471 111.234 13.5786 111.108 13.3505C110.983 13.1223 110.771 12.9533 110.521 12.8805L93.6848 8.00513Z" fill="#E6E6E6"/>
<path d="M106.237 16.639L95.2906 13.4692C95.1883 13.4394 95.1021 13.3702 95.0508 13.2769C94.9995 13.1837 94.9873 13.0739 95.017 12.9716C95.0467 12.8694 95.1158 12.7832 95.2091 12.7317C95.3024 12.6803 95.4124 12.668 95.5148 12.6974L106.461 15.8673C106.564 15.8969 106.65 15.9661 106.702 16.0594C106.753 16.1528 106.765 16.2627 106.736 16.3651C106.706 16.4674 106.637 16.5538 106.543 16.6052C106.45 16.6565 106.34 16.6687 106.237 16.639H106.237Z" fill="#B3013D"/>
<path d="M105.443 19.3718L94.497 16.202C94.4463 16.1873 94.3989 16.1628 94.3577 16.1298C94.3164 16.0968 94.2821 16.0561 94.2566 16.0098C94.2311 15.9636 94.215 15.9128 94.2092 15.8604C94.2034 15.8079 94.2079 15.7549 94.2226 15.7042C94.2374 15.6535 94.2619 15.6062 94.295 15.565C94.328 15.5238 94.3688 15.4895 94.4151 15.4641C94.4614 15.4387 94.5122 15.4226 94.5648 15.4168C94.6173 15.4109 94.6704 15.4155 94.7212 15.4302L105.668 18.6C105.77 18.6299 105.856 18.699 105.907 18.7923C105.959 18.8856 105.971 18.9954 105.941 19.0976C105.912 19.1998 105.842 19.2861 105.749 19.3375C105.656 19.3889 105.546 19.4012 105.443 19.3718Z" fill="#B3013D"/>
<path d="M104.65 22.1043L93.7034 18.9344C93.6011 18.9046 93.5149 18.8354 93.4636 18.7422C93.4123 18.6489 93.4001 18.5391 93.4298 18.4369C93.4595 18.3346 93.5286 18.2484 93.6219 18.197C93.7152 18.1456 93.8252 18.1332 93.9276 18.1627L104.874 21.3325C104.977 21.3622 105.063 21.4313 105.114 21.5246C105.166 21.618 105.178 21.7279 105.148 21.8303C105.119 21.9326 105.049 22.019 104.956 22.0704C104.862 22.1217 104.752 22.1339 104.65 22.1043Z" fill="#B3013D"/>
<path d="M216 153.244H39.418V154H216V153.244Z" fill="#E6E6E6"/>
<path d="M141.945 152.061H113.23L114.203 139.426H140.971L141.945 152.061Z" fill="#E6E6E6"/>
<path d="M143.891 150.603H111.77V153.519H143.891V150.603Z" fill="#E6E6E6"/>
<path d="M182.583 58.0242H72.8345C72.06 58.0242 71.3173 58.3314 70.7697 58.8782C70.222 59.425 69.9144 60.1667 69.9144 60.94V127.762H185.504V60.94C185.504 60.5571 185.428 60.178 185.281 59.8242C185.135 59.4704 184.92 59.149 184.648 58.8782C184.377 58.6075 184.055 58.3927 183.701 58.2461C183.347 58.0996 182.967 58.0242 182.584 58.0242H182.583Z" fill="#767171"/>
<path d="M69.9144 127.762V138.697C69.9144 139.08 69.9899 139.459 70.1367 139.813C70.2834 140.166 70.4985 140.488 70.7697 140.759C71.0408 141.029 71.3627 141.244 71.717 141.391C72.0713 141.537 72.451 141.613 72.8345 141.613H182.583C183.358 141.613 184.101 141.305 184.648 140.759C185.196 140.212 185.504 139.47 185.504 138.697V127.762H69.9144Z" fill="#E6E6E6"/>
<path d="M179.907 64.0989H75.7546V122.416H179.907V64.0989Z" fill="#E6E6E6"/>
<path d="M127.831 137.482C129.443 137.482 130.751 136.176 130.751 134.566C130.751 132.956 129.443 131.65 127.831 131.65C126.218 131.65 124.911 132.956 124.911 134.566C124.911 136.176 126.218 137.482 127.831 137.482Z" fill="#767171"/>
<path d="M79.0021 66.562C79.3082 66.562 79.5563 66.3143 79.5563 66.0087C79.5563 65.7031 79.3082 65.4553 79.0021 65.4553C78.6961 65.4553 78.448 65.7031 78.448 66.0087C78.448 66.3143 78.6961 66.562 79.0021 66.562Z" fill="white"/>
<path d="M81.1056 66.562C81.4117 66.562 81.6598 66.3143 81.6598 66.0087C81.6598 65.7031 81.4117 65.4553 81.1056 65.4553C80.7996 65.4553 80.5515 65.7031 80.5515 66.0087C80.5515 66.3143 80.7996 66.562 81.1056 66.562Z" fill="white"/>
<path d="M83.2091 66.562C83.5152 66.562 83.7633 66.3143 83.7633 66.0087C83.7633 65.7031 83.5152 65.4553 83.2091 65.4553C82.9031 65.4553 82.655 65.7031 82.655 66.0087C82.655 66.3143 82.9031 66.562 83.2091 66.562Z" fill="white"/>
<path d="M176.905 67.889H78.448V116.866H176.905V67.889Z" fill="white"/>
<path d="M84.9927 75.3386C84.9005 75.3387 84.812 75.3754 84.7467 75.4405C84.6815 75.5057 84.6448 75.594 84.6447 75.6862V93.2541C84.6448 93.3463 84.6815 93.4346 84.7467 93.4998C84.812 93.565 84.9005 93.6016 84.9927 93.6017H105.311C105.403 93.6016 105.491 93.565 105.557 93.4998C105.622 93.4346 105.659 93.3463 105.659 93.2541V75.6862C105.659 75.594 105.622 75.5057 105.557 75.4405C105.491 75.3754 105.403 75.3387 105.311 75.3386H84.9927Z" fill="#E6E6E6"/>
<path d="M117.616 75.3951C117.523 75.3952 117.435 75.4318 117.37 75.497C117.304 75.5622 117.268 75.6505 117.268 75.7427V93.2541C117.268 93.3463 117.304 93.4347 117.37 93.4998C117.435 93.565 117.523 93.6016 117.616 93.6017H137.869C137.961 93.6016 138.05 93.5649 138.115 93.4998C138.18 93.4346 138.217 93.3463 138.217 93.2541V75.7427C138.217 75.6506 138.18 75.5622 138.115 75.4971C138.05 75.4319 137.961 75.3953 137.869 75.3951H117.616Z" fill="#E6E6E6"/>
<path d="M149.897 75.2117C149.804 75.2118 149.716 75.2484 149.651 75.3136C149.585 75.3788 149.549 75.4671 149.549 75.5592V93.2542C149.549 93.3464 149.585 93.4347 149.651 93.4998C149.716 93.565 149.804 93.6017 149.897 93.6018H170.36C170.453 93.6017 170.541 93.565 170.606 93.4998C170.671 93.4347 170.708 93.3464 170.708 93.2542V75.5592C170.708 75.4671 170.671 75.3788 170.606 75.3136C170.541 75.2484 170.453 75.2118 170.36 75.2117H149.897Z" fill="#E6E6E6"/>
<path d="M85.3642 102.298C85.1736 102.298 84.9909 102.374 84.8562 102.509C84.7216 102.644 84.6459 102.826 84.6459 103.016C84.6459 103.207 84.7216 103.389 84.8562 103.524C84.9909 103.659 85.1736 103.735 85.3642 103.735H104.467C104.658 103.735 104.84 103.659 104.975 103.524C105.11 103.389 105.185 103.207 105.185 103.016C105.185 102.826 105.11 102.644 104.975 102.509C104.84 102.374 104.658 102.298 104.467 102.298H85.3642Z" fill="#E6E6E6"/>
<path d="M85.3642 105.716C85.1736 105.716 84.9909 105.792 84.8562 105.927C84.7215 106.061 84.6459 106.244 84.6459 106.434C84.6459 106.625 84.7215 106.807 84.8562 106.942C84.9909 107.077 85.1736 107.153 85.3642 107.153H93.9651C94.1558 107.153 94.3385 107.077 94.4731 106.942C94.6078 106.807 94.6834 106.625 94.6834 106.434C94.6834 106.244 94.6078 106.061 94.4731 105.927C94.3385 105.792 94.1558 105.716 93.9651 105.716H85.3642Z" fill="#B3013D"/>
<path d="M118.338 102.298C118.147 102.298 117.964 102.374 117.83 102.509C117.695 102.644 117.619 102.826 117.619 103.016C117.619 103.207 117.695 103.389 117.83 103.524C117.964 103.659 118.147 103.735 118.338 103.735H137.441C137.631 103.735 137.814 103.659 137.949 103.524C138.083 103.389 138.159 103.207 138.159 103.016C138.159 102.826 138.083 102.644 137.949 102.509C137.814 102.374 137.631 102.298 137.441 102.298H118.338Z" fill="#E6E6E6"/>
<path d="M118.338 105.716C118.147 105.716 117.964 105.792 117.83 105.927C117.695 106.061 117.619 106.244 117.619 106.434C117.619 106.625 117.695 106.807 117.83 106.942C117.964 107.077 118.147 107.153 118.338 107.153H126.939C127.129 107.153 127.312 107.077 127.447 106.942C127.581 106.807 127.657 106.625 127.657 106.434C127.657 106.244 127.581 106.061 127.447 105.927C127.312 105.792 127.129 105.716 126.939 105.716H118.338Z" fill="#B3013D"/>
<path d="M150.487 102.298C150.296 102.298 150.114 102.374 149.979 102.509C149.844 102.644 149.769 102.826 149.769 103.016C149.769 103.207 149.844 103.389 149.979 103.524C150.114 103.659 150.296 103.735 150.487 103.735H169.59C169.781 103.735 169.963 103.659 170.098 103.524C170.233 103.389 170.308 103.207 170.308 103.016C170.308 102.826 170.233 102.644 170.098 102.509C169.963 102.374 169.781 102.298 169.59 102.298H150.487Z" fill="#E6E6E6"/>
<path d="M85.3642 98.7678C85.1736 98.7682 84.9909 98.844 84.8562 98.9788C84.7216 99.1135 84.6459 99.296 84.6459 99.4864C84.6459 99.6767 84.7216 99.8593 84.8562 99.994C84.9909 100.129 85.1736 100.205 85.3642 100.205H104.467C104.658 100.205 104.84 100.129 104.975 99.994C105.11 99.8593 105.185 99.6767 105.185 99.4864C105.185 99.296 105.11 99.1135 104.975 98.9788C104.84 98.844 104.658 98.7682 104.467 98.7678H85.3642Z" fill="#E6E6E6"/>
<path d="M118.338 98.7678C118.147 98.7682 117.964 98.844 117.83 98.9788C117.695 99.1135 117.619 99.296 117.619 99.4864C117.619 99.6767 117.695 99.8593 117.83 99.994C117.964 100.129 118.147 100.205 118.338 100.205H137.441C137.631 100.205 137.814 100.129 137.949 99.994C138.083 99.8593 138.159 99.6767 138.159 99.4864C138.159 99.296 138.083 99.1135 137.949 98.9788C137.814 98.844 137.631 98.7682 137.441 98.7678H118.338Z" fill="#E6E6E6"/>
<path d="M150.487 98.7678C150.296 98.7682 150.114 98.844 149.979 98.9788C149.844 99.1135 149.769 99.296 149.769 99.4864C149.769 99.6767 149.844 99.8593 149.979 99.994C150.114 100.129 150.296 100.205 150.487 100.205H169.59C169.781 100.205 169.963 100.129 170.098 99.994C170.233 99.8593 170.308 99.6767 170.308 99.4864C170.308 99.296 170.233 99.1135 170.098 98.9788C169.963 98.844 169.781 98.7682 169.59 98.7678H150.487Z" fill="#E6E6E6"/>
<path d="M150.487 105.716C150.296 105.716 150.114 105.792 149.979 105.927C149.844 106.061 149.769 106.244 149.769 106.434C149.769 106.625 149.844 106.807 149.979 106.942C150.114 107.077 150.296 107.153 150.487 107.153H159.088C159.279 107.153 159.461 107.077 159.596 106.942C159.731 106.807 159.806 106.625 159.806 106.434C159.806 106.244 159.731 106.061 159.596 105.927C159.461 105.792 159.279 105.716 159.088 105.716H150.487Z" fill="#B3013D"/>
</g>
<defs>
<clipPath id="clip0_56_894">
<rect width="216" height="154" fill="white"/>
</clipPath>
</defs>
</svg>
